<svg xmlns="http://www.w3.org/2000/svg" width="32.256" height="32.256" viewBox="0 0 32.256 32.256"><path d="M27.532,4.724A16.128,16.128,0,0,0,4.724,27.532,16.128,16.128,0,1,0,27.532,4.724Zm-11.4,25.642A14.238,14.238,0,1,1,30.366,16.128,14.254,14.254,0,0,1,16.128,30.366Z" fill="#dca727"/><g transform="translate(8.146 10.676)"><path d="M144.988,169.744a.945.945,0,0,0-1.336,0l-8.345,8.345-4.393-4.393a.945.945,0,0,0-1.336,1.336l5.061,5.061a.945.945,0,0,0,1.336,0l9.013-9.013A.945.945,0,0,0,144.988,169.744Z" transform="translate(-129.301 -169.467)" fill="#dca727"/></g></svg>