<?xml version="1.0" encoding="utf-8"?>
<!-- Generator: Adobe Illustrator 24.3.0, SVG Export Plug-In . SVG Version: 6.00 Build 0)  -->
<svg version="1.1" id="Layer_1" xmlns="http://www.w3.org/2000/svg" xmlns:xlink="http://www.w3.org/1999/xlink" x="0px" y="0px"
	 viewBox="0 0 1080 816" style="enable-background:new 0 0 1080 816;" xml:space="preserve">
<style type="text/css">
	.st0{fill:#F7F7F7;}
	.st1{fill:#D3D3D3;}
	.st2{fill:#FA968C;}
	.st3{fill:#264C51;}
	.st4{fill:#FAB9AF;}
	.st5{fill:#F57A2F;}
	.st6{fill:#0091C8;}
	.st7{fill:#133233;}
	.st8{fill:#FF8C46;}
	.st9{fill:#41378C;}
	.st10{fill:none;stroke:#00AEF0;stroke-width:2;stroke-miterlimit:10;}
	.st11{fill:#FFBE55;}
	.st12{fill:none;stroke:#727272;stroke-miterlimit:10;}
	.st13{opacity:0.4;fill:#264C51;enable-background:new    ;}
	.st14{fill:#41B4E6;}
	.st15{fill:#CD5014;}
</style>
<circle class="st0" cx="537.8" cy="407.2" r="400"/>
<path class="st1" d="M1031,714.3c0,13.1-10.6,23.7-23.7,23.7H110.7C97.6,738,87,727.4,87,714.3l0,0c0-13.1,10.6-23.7,23.7-23.7
	h896.5C1020.4,690.5,1031,701.2,1031,714.3L1031,714.3z"/>
<path class="st2" d="M723.9,98c0.2-2.8,5.1-8.6,4.3-9.3c-0.5-0.5-2.4,1.3-3.5,2.3c-0.1,0.1-0.3,0.2-0.5,0.1s-0.3-0.2-0.3-0.4
	c-0.2-2.8-0.9-10.6-1.7-10.7c-0.8-0.1-1.2,4.9-1.3,6.5c0,0.1,0,0.1-0.1,0.1s-0.1,0-0.1-0.1c-0.6-1.8-2.7-7.4-3.5-6.7s0.5,6.1,1,8.2
	c0,0.1,0,0.1-0.1,0.1s-0.1,0-0.1,0c-1.1-1.9-3.8-6.6-4.6-6s1.4,5.7,2.2,7.6v0.1h-0.1c-1.2-1.4-4.4-4.8-4.3-3.8
	c0,1.3,5.6,11.7,7.4,13.5C720.4,101.3,723.9,98,723.9,98z"/>
<path class="st2" d="M773.7,133.1c-3.8,8.3-9.2,17.8-15.7,24.3c-12.7,12.6-29.1,9.3-34.8-20.1c-1-4.4-1.7-8.9-2.3-13.3
	c-1.2-8.8-1.6-17.6-2-26.4c-0.1-1.3,1-2.5,2.3-2.5c1.2-0.1,2.2,0.8,2.5,1.9l0,0c1.7,8.5,3.5,17,5.7,25.2c1.1,4.1,2.3,8.2,3.7,12.1
	c1.2,3.7,6,15.3,9.7,16.4c0.1,0,0.2,0.1,0.3,0.1c0.1-0.1,0.1-0.1,0.1,0c0.1-0.1,0.1-0.1,0.2-0.1c0.2-0.2,0.4-0.2,0.9-0.6
	c0.8-0.5,1.9-1.6,3-2.9c2.2-2.6,4.2-6,6-9.5c3.1-6,4.9-10.3,4.9-10.3c3.8-10.4,19.5-5.4,15.7,5C773.9,132.7,773.8,132.9,773.7,133.1
	z"/>
<path class="st3" d="M748.5,144.3L748.5,144.3c2-2.9,3.7-5.8,5.4-8.8c1.6-2.9,3.3-6.2,4.4-9l0.1-0.1c0.1-0.2,0.2-0.4,0.3-0.7
	c2.2-4.1,7.2-5.7,11.3-3.5s5.7,7.2,3.5,11.3c-2,3.8-4,7-6.2,10.3c-1.5,2.2-3.1,4.3-4.8,6.4C761.3,148.9,751.4,145.4,748.5,144.3z"/>
<path class="st4" d="M756.7,202.6c7.3,8.4,49.5,11.9,49.5,11.9c3.1-3.6-1.4-20-2.5-36.7c-1.2-18-1.9-37.9-2.2-48.6
	c-0.1-4.4-3.8-8-8.2-8h-26.8c-4.1,0-7.6,3.1-7.9,7.3c-0.7,8.5-1.9,23.3-3.1,37.8C754.2,181,750.4,195.4,756.7,202.6z"/>
<path class="st2" d="M781,342.7l-0.1,16.6l1.4,8.1c0.2,1.4-0.8,2.7-2.2,2.7c-6.8,0.2-24.2,0.7-24.6-0.1c-2.2-3.5,7.7-4.9,14.9-7.7
	s2.2-30.2,2.2-30.2L781,342.7z"/>
<path class="st5" d="M770.5,362.3C770.5,362.3,770.6,362.3,770.5,362.3c1.8,0.5,3.8,0.9,5.9,0.9c1.9,0,3.6-0.3,5.1-0.8l0.9,4.8
	c0.2,1.4-0.8,2.7-2.2,2.7c-6.8,0.2-24.2,0.7-24.6-0.1C753.4,366.5,763.2,365.1,770.5,362.3z"/>
<path class="st6" d="M756.7,208.7c-0.3,11.5,4.3,84.6,13.2,84.8c9,0.2,18.9-72.6,19.2-84.1s-6.8-21-15.7-21.2
	C764.4,188,757,197.2,756.7,208.7z"/>
<path class="st7" d="M782.3,278.3c0.9,6.3,1,47-0.4,67.6h-8.2c-4.4-20-9.1-58.9-9.9-65.1c0-0.1,0-0.2,0-0.2
	c-4.9-21.5-7.3-63.5-7.1-72c0.3-11.5,7.7-20.7,16.7-20.5s16,9.7,15.7,21.2C789,216.7,781.9,275.3,782.3,278.3z"/>
<path class="st2" d="M800.6,342.7l-0.1,16.6l1.4,8.1c0.2,1.4-0.8,2.7-2.2,2.7c-6.8,0.2-24.2,0.7-24.6-0.1c-2.2-3.5,7.7-4.9,14.9-7.7
	s2.2-30.2,2.2-30.2L800.6,342.7z"/>
<path class="st8" d="M790,362.3C790,362.3,790.1,362.3,790,362.3c1.8,0.5,3.8,0.9,5.9,0.9c1.9,0,3.6-0.3,5.1-0.8l0.9,4.8
	c0.2,1.4-0.8,2.7-2.2,2.7c-6.8,0.2-24.2,0.7-24.6-0.1C772.9,366.5,782.8,365.1,790,362.3z"/>
<path class="st6" d="M776.3,208.7c-0.3,11.5,4.3,84.6,13.2,84.8c9,0.2,17-72.9,17.3-84.4s-4.8-20.8-13.8-21S776.5,197.2,776.3,208.7
	z"/>
<path class="st7" d="M801.9,278.3c0.9,6.3,1,47-0.4,67.6h-8.2c-4.4-20-9.1-58.9-9.9-65.1c0-0.1,0-0.2,0-0.2
	c-4.9-21.5-9.2-63.8-9-72.3c0.3-11.5,9.7-20.4,18.6-20.2s14.1,9.4,13.8,21C806.6,216.4,801.4,275.3,801.9,278.3z"/>
<path class="st3" d="M766.2,121.2h4.3c1.5,3.5,4.7,6.2,9.7,6.2s8.2-2.7,9.7-6.2h4c4.1,0,7.4,3.2,7.5,7.3c0.3,10.6,1,30.9,2.2,49.3
	c1.1,16.7,5.6,32.1,2.5,36.7c0,0-42.2-3.5-49.5-11.9c-6.3-7.2-2.4-21.7-1.2-36.4c1.2-14.6,2.5-29.6,3.1-38
	C758.9,124.3,762.3,121.2,766.2,121.2z"/>
<path class="st7" d="M781.4,111.5l0.5,0.1c3.8,0.8,7.6-1.6,8.5-5.4l2.3-10.2l-7.4-1.6L781.4,111.5z"/>
<polygon class="st4" points="774.8,121.2 788.8,121.2 784.7,107.3 775.2,108.5 "/>
<path class="st2" d="M775.2,108.5l9.5-1.2l1.9,6.5c-2.1,2.4-5.3,6.1-8.8,6.1c-1.1,0-2.1-0.3-3-0.9L775.2,108.5z"/>
<path class="st4" d="M773.8,115.9L773.8,115.9c6.3,1.4,12.5-2.6,13.9-8.8l2.8-12.7L771,90.1c0,0-2.2,9.9-2.3,16.9
	C768.7,112.2,770.6,115.2,773.8,115.9z"/>
<rect x="787.6" y="97.9" transform="matrix(0.2171 -0.9762 0.9762 0.2171 519.8214 847.8131)" class="st9" width="1.7" height="3.8"/>
<path class="st4" d="M784.9,103.9c-0.5,2.5,0.2,4.7,1.6,5.1c1.5,0.3,3.8-2.6,4.3-5c0.5-2.5-0.9-3.6-2.3-3.9
	C787.1,99.7,785.4,101.4,784.9,103.9z"/>
<path class="st7" d="M768.5,95c-0.1-1.7,0.2-3.4,0.8-4.9l0,0c1.6-3.9,5.9-5.5,9.8-4.2c0.4,0.1,0.8,0.3,1.3,0.4l6.6,1.5
	c4,0.9,6.5,4.8,5.6,8.8l-0.3,1.5l-3.9,2.3l-1.6,2.8l-0.3-0.1c-1.3-0.3-2.1-1.5-1.9-2.7c0.3-2.1-0.7-4.1-2.7-4.5l-5.8-1.3
	c-3.6-0.8-5.8,0.7-6.4,3.4l-0.3,2.3L768.5,95z"/>
<line class="st10" x1="787.1" y1="170.1" x2="883.4" y2="705.7"/>
<line class="st10" x1="803.3" y1="705.7" x2="707.1" y2="170.1"/>
<line class="st10" x1="713.5" y1="194" x2="791.7" y2="194"/>
<line class="st10" x1="718.7" y1="229.8" x2="798" y2="229.8"/>
<line class="st10" x1="725.9" y1="265.7" x2="804.5" y2="265.7"/>
<line class="st10" x1="732.9" y1="301.5" x2="811" y2="301.5"/>
<line class="st10" x1="737.1" y1="337.3" x2="816.2" y2="337.3"/>
<line class="st10" x1="742.6" y1="372.5" x2="822.8" y2="372.5"/>
<line class="st10" x1="750.6" y1="409" x2="829.6" y2="409"/>
<line class="st10" x1="757.1" y1="444.8" x2="836.2" y2="444.8"/>
<line class="st10" x1="763.5" y1="478.7" x2="842.6" y2="478.7"/>
<line class="st10" x1="768.9" y1="512.6" x2="848" y2="512.6"/>
<line class="st10" x1="775.1" y1="546.4" x2="854.2" y2="546.4"/>
<line class="st10" x1="781.1" y1="580.3" x2="860.3" y2="580.3"/>
<line class="st10" x1="787" y1="614.2" x2="866.1" y2="614.2"/>
<line class="st10" x1="793.9" y1="648" x2="873" y2="648"/>
<line class="st10" x1="707.1" y1="170.1" x2="610" y2="706.9"/>
<line class="st10" x1="690.1" y1="706.9" x2="787.1" y2="170.1"/>
<line class="st10" x1="780.7" y1="194" x2="702.8" y2="194"/>
<line class="st10" x1="775.5" y1="229.8" x2="696.2" y2="229.8"/>
<line class="st10" x1="768.3" y1="265.7" x2="689.7" y2="265.7"/>
<line class="st10" x1="761.3" y1="301.5" x2="683.2" y2="301.5"/>
<line class="st10" x1="755.7" y1="337.3" x2="676.7" y2="337.3"/>
<line class="st10" x1="750.4" y1="372.5" x2="670.3" y2="372.5"/>
<line class="st10" x1="742.5" y1="409" x2="663.6" y2="409"/>
<line class="st10" x1="737.1" y1="444.8" x2="658" y2="444.8"/>
<line class="st10" x1="731" y1="485" x2="651.9" y2="485"/>
<line class="st10" x1="721.8" y1="525.2" x2="642.7" y2="525.2"/>
<line class="st10" x1="715" y1="565.4" x2="635.8" y2="565.4"/>
<line class="st10" x1="708.5" y1="605.6" x2="629.4" y2="605.6"/>
<line class="st10" x1="700.1" y1="646.2" x2="620.9" y2="646.2"/>
<path class="st7" d="M788.2,90.3c0.4,3.6-12.5,8.2-16,8.6c-3.4,0.4-6.6-2.2-7-5.8s2-6.9,5.4-7.3C774,85.4,787.7,86.7,788.2,90.3z"/>
<path class="st11" d="M608.7,95.8c-4.2,0.7-6.9,4.7-6.2,8.9l7.1,40l2.7-0.5c2.4-5.2,7.8-9,14.3-9c6.2,0.1,11.9,4,14.1,9.8
	c3.6,9.4-2.3,19.3-11.7,21c-5.2,0.9-10.2-0.9-13.6-4.3l-2.7,0.5l7.8,44.2c0.7,4.2,4.7,6.9,8.9,6.2l40-7.1l-0.5-2.7
	c-5.2-2.4-9-7.8-9-14.3c0.1-6.2,4-11.9,9.8-14.1c9.4-3.6,19.3,2.3,21,11.7c0.9,5.2-0.9,10.2-4.3,13.6l0.5,2.7l44.2-7.8
	c4.2-0.7,6.9-4.7,6.2-8.9L719.3,84c-0.7-4.2-4.7-6.9-8.9-6.2L608.7,95.8z"/>
<path class="st4" d="M803,134.9c-4.3,5.9-11.7,13.6-20.5,20.3c-27,19.7-56,21.7-79.6-0.6c-1-0.9-1-2.4-0.1-3.4c0.8-0.8,2-1,3-0.4
	l0.1,0.1c15.4,8.9,29.2,12.5,46.5,5.2c22.7-9.8,38.9-33.4,37.2-31.1c2.8-3.7,8-4.4,11.7-1.6C805,126,805.7,131.2,803,134.9z"/>
<path class="st3" d="M777.2,138.4c5.6-5.1,12.8-15,12.8-15s3.4-4,10.4-1.1c5.6,2.3,4.5,8.9,4.5,8.9c-0.1,0.9-2,11.8-14.8,21.4
	C789.9,152.7,776.2,139.3,777.2,138.4z"/>
<path class="st4" d="M707.4,151.8c-1.8-2.2-2.3-9.7-3.4-9.7c-0.7,0-0.9,2.6-0.9,4.1c0,0.2-0.1,0.3-0.3,0.4s-0.3,0-0.5-0.1
	c-2.1-1.8-8-7-8.6-6.5s2.5,4.3,3.6,5.6v0.1c0,0-0.1,0.1-0.1,0c-1.7-0.8-7.1-3.5-7.2-2.4c-0.1,1.1,4.6,4.1,6.4,5.2c0,0,0.1,0.1,0,0.1
	s-0.1,0.1-0.1,0.1c-2.1-0.6-7.3-2.1-7.5-1.1c-0.1,1,5,3.2,6.8,3.9l0.1,0.1c0,0.1-0.1,0.1-0.1,0.1c-1.8-0.1-6.5-0.4-5.8,0.3
	c0.9,0.9,12.2,4.6,14.7,4.6C707.2,156.6,707.4,151.8,707.4,151.8z"/>
<rect x="267.5" y="279.7" class="st3" width="534.9" height="325.4"/>
<rect x="294.7" y="304.1" class="st0" width="480.6" height="276.7"/>
<rect x="326" y="373.7" class="st12" width="123.2" height="176.5"/>
<rect x="476.9" y="373.7" class="st12" width="123.2" height="176.5"/>
<rect x="627.8" y="373.7" class="st12" width="123.2" height="176.5"/>
<path class="st2" d="M220.3,653c0,0-11,12.6-13,14.6c-1.7,1.7-4,2.3-6.3,2.9c-0.7,0.2-1.7,0.9-2.5,1.6c-0.6,0.5-0.9,1.3-0.9,2.1
	c0.3,14.2,12.6,24.2,13.3,23.4c1.2-1.5,0.3-5.7-2.1-8.4c-2.4-2.8-3-6.7-1.9-10.2l0,0c0.8-2.8,2.4-5.3,4.5-7.3l9.5-8.9L220.3,653z"/>
<path class="st2" d="M332.5,670.9l8.7,14.6c2.7,4.5,3.7,9.7,2.8,14.9l0,0c-0.5,2.9,1.7,5.5,4.6,5.6c9.4,0.2,27.6,0.6,28.1-0.3
	c2.7-4.4-8.8-6.3-17.9-9.4c-6.1-2.1-13.6-18.6-18.3-31.5l-7.1,4.5C332.8,669.7,332.5,670.3,332.5,670.9z"/>
<path class="st7" d="M358.6,701.3c3.9,0,7.8-0.9,11.4-1.6c0.4-0.1,0.9-0.1,1.3,0.1c4.2,1.5,6.8,3.6,5.4,5.9
	c-0.6,0.9-22,0.5-30.3,0.2c-1.7,0-3-1.6-2.7-3.4l0.5-3.1C348.9,700.6,353.7,701.3,358.6,701.3z"/>
<path class="st7" d="M301.3,506.1c-9.7-1.9-21.2,6-23.7,18.4c-1.4,7.1-3.5,33.7-3.2,55.5c0.1,8.3-3.9,16.3-11,20.7
	c-1.2,0.7-2.2,1.5-3.1,2.3c-4.8,4.3-26.9,32.1-40.8,51c-0.4,2.9,0,7,1.6,9c17.8-13.9,47.9-40.2,53-44.8c2.8-2.6,6-5.6,8.5-8.5
	c10.9-7.3,28.6-63.2,31-74.7C316,522.5,310.9,508.1,301.3,506.1z"/>
<ellipse class="st7" cx="295.2" cy="425.6" rx="15" ry="19.4"/>
<path class="st7" d="M291.6,427.6c-0.2-10.7-8.9-19.7-19.6-20.3c-9.5-0.5-17.7,5.3-20.8,13.6c-1.1,2.9-3.9,4.8-7,4.8
	c-1.3,0-2.6,0.1-4,0.4c-7.8,1.6-13.9,8.2-14.8,16.2c-0.7,7.2,2.6,13.6,8,17.3c2.3,1.6,3.6,4.2,4,6.9c1.8,12.8,13.4,22.2,26.8,20.7
	c11.4-1.2,20.5-10.6,21.5-22c0.6-7-1.8-13.4-6-18.2C286.9,443.5,291.8,436.1,291.6,427.6z"/>
<path class="st13" d="M424,430.3c-3.8-0.8-7.3,0.8-9.2,3.6h-2.3v-20.8c0-3.8-3.1-6.9-6.9-6.9h-23.2v-2.3c2.8-1.9,4.4-5.4,3.6-9.2
	c-0.7-3.3-3.3-5.9-6.6-6.7c-5.8-1.3-11,3.1-11,8.6c0,3,1.5,5.7,3.8,7.3v2.3h-20.8c-3.8,0-6.9,3.1-6.9,6.9v20.8h1.5
	c1.9-2.8,5.4-4.4,9.2-3.6c3.3,0.7,5.9,3.3,6.7,6.6c1.3,5.8-3.1,11-8.6,11c-3,0-5.7-1.5-7.3-3.8h-1.5v23.2c0,3.8,3.1,6.9,6.9,6.9
	h20.8v-1.6c-2.8-1.9-4.4-5.4-3.6-9.2c0.7-3.3,3.3-5.9,6.6-6.7c5.8-1.3,11,3.1,11,8.6c0,3-1.5,5.7-3.8,7.3v1.6h23.2
	c3.8,0,6.9-3.1,6.9-6.9v-23.2h2.3c1.6,2.3,4.3,3.8,7.3,3.8c5.6,0,10-5.2,8.6-11C429.9,433.6,427.3,431,424,430.3z"/>
<path class="st7" d="M295.2,399.8c0,0,8.5,5.3,7.4,12.5c0,0,4.5-3.2,5.5-14.2C308.9,390.5,295.2,399.8,295.2,399.8z"/>
<path class="st4" d="M310.8,443.4c0,0,0,0.4,0,1.1c0,0.7,0,1.5,0.1,2.8c0.1,2.4,0.4,5.9,1.3,9.9c0.5,2,1.1,4.2,1.9,6.3
	c0.9,2.1,2,4.2,3.4,5.8c0.7,0.8,1.4,1.4,2.2,1.8c0.7,0.4,1.4,0.5,2.1,0.4c1.6-0.1,3.6-1.7,5.4-3.6c1.8-1.9,3.3-4.3,4.7-6.8
	c1.4-2.4,2.6-5,3.7-7.5c2.2-5,3.9-9.9,5.3-14.1c1.4-4.2,2.4-7.8,3.2-10.3c0.7-2.5,1.1-3.9,1.1-3.9l0,0c0.2-0.7,0.9-1.1,1.6-0.9
	c0.7,0.2,1,0.8,0.9,1.5c0,0-0.3,1.5-0.8,4.1c-0.3,1.3-0.5,2.9-0.9,4.7s-0.8,3.8-1.4,6c-1.1,4.4-2.5,9.5-4.3,14.9
	c-1,2.7-2,5.5-3.4,8.3c-1.3,2.8-2.8,5.6-4.9,8.2c-1,1.3-2.2,2.6-3.6,3.8c-1.4,1.1-3.2,2.2-5.3,2.6c-2.1,0.5-4.5,0.2-6.4-0.6
	s-3.4-2-4.7-3.2c-2.5-2.5-4-5.2-5.2-7.8s-2.1-5.1-2.7-7.4c-1.3-4.7-1.8-8.6-2.1-11.4c-0.1-1.4-0.2-2.6-0.2-3.3s0-1.1,0-1.1
	c-0.1-2.5,1.9-4.6,4.4-4.7c2.5-0.1,4.6,1.9,4.7,4.4C310.8,443.3,310.8,443.4,310.8,443.4z"/>
<path class="st4" d="M304.7,480.6c3.4-10.2,10.2-31.8,9.6-38.8c-0.4-4.5-4.1-8-8.7-8h-29.4c-4.9,0-8.9,3.9-9,8.7
	c-0.2,8.5,3.7,27.9,5.9,38.1H304.7z"/>
<path class="st4" d="M298.9,526.6c3.4,12.2,30.9,99,21.4,101.7c-9.5,2.6-61.1-82.1-61.8-94.8c-0.6-12,6.3-25,15.8-27.6
	C283.8,503.2,295.5,514.4,298.9,526.6z"/>
<path class="st7" d="M341.4,668.2c0.4-0.4,0.4-1,0.2-1.5c-7.4-20.4-17.2-46.1-19.3-51c-0.2-0.6-0.5-1.1-0.8-1.6
	c-3.6-25.7-20.1-78.2-22.7-87.5c-3.4-12.2-15.1-23.4-24.6-20.8c-9.5,2.6-16.4,15.6-15.8,27.6c0.4,7.9,20.8,44.1,38.3,69.4
	c3.7,5.3,6,11.4,7.1,17.8c0.8,4.4,2,8.8,3.4,12c2.1,4.8,14.2,23.1,25.1,38.6c0.3,0.4,0.8,0.7,1.4,0.7
	C336.7,671.7,339.4,670.6,341.4,668.2z"/>
<path class="st3" d="M269.7,493.5c1.5-4.3,2-8.8,1.3-13.3c-1.5-10.4-4.1-30.1-3.8-38.4c0.1-4.5,3.8-8,8.2-8h4.4
	c1.7,3.9,5.2,6.8,10.7,6.8s9-3,10.6-6.8h4.1c-4.5,9.5-2.9,22.1,4.8,29.4c-1.4,5-2.6,10.1-3.5,14.2c-1.2,5.6-0.7,11.3,1.5,16.6
	c3.8,9,6.7,23.5,5.9,29.2c-30.9,8.8-52.3-6.8-52.3-6.8L269.7,493.5z"/>
<polygon class="st4" points="295.2,435.9 281.9,434.5 286.1,419.9 294.7,420.9 "/>
<path class="st2" d="M294.7,420.9l-8.6-1.1l-1.3,4.6c1.9,2.2,4.4,6.9,7.6,6.9c1,0,1.9-0.3,2.7-0.8L294.7,420.9z"/>
<path class="st4" d="M295,428c-2.9,0-6.1-1.5-10.5-5.3c-2.5-2.2-4.4-6-4.4-8.6v-14.3h22c0,0,1.6,7.6,0,15.1
	C301,420.6,297.3,428,295,428z"/>
<path class="st4" d="M283.9,411.4c0,2.8-1.3,5-3,5c-1.6,0-3.5-3.6-3.5-6.4s1.8-3.6,3.5-3.6S283.9,408.6,283.9,411.4z"/>
<path class="st7" d="M277.5,401.6c0-4.5,3.6-8.1,8.1-8.1h7.4c2.1,0,4.2-0.6,6-1.6c2.6-1.5,5.9-1,7.7,1.4c1.9,2.6,2.8,6.1-2.1,9.4
	c-2.4,1.6-6-0.2-8.4,0.6c-0.1,0-0.3,0-0.4,0h-6.5c-2.3,0-4,1.9-4.1,4.1c0,1.4-1.2,2.6-2.7,2.6h-0.3l-1-3.4l-3.6,4.9L277.5,401.6
	L277.5,401.6z"/>
<path class="st4" d="M349.7,417.3c0,0,1.5,7.6-0.6,8.8c-2.2,1.2-3.8,1.7-5.8-1.4c-1.9-3.1-3.1-8.2-3.2-11.4s2.1-8.7,2.7-9.1
	c2.2-1.6,1.8,4.3,1.7,7.1c-0.1,2.8,0.1,6.1,1.5,5.7c1.4-0.3,1.1-5.8,2.6-6.7C350,409.4,349.7,417.3,349.7,417.3z"/>
<path class="st4" d="M382.5,468.9c0,0-7.6-1.2-8.8,1s-1.5,3.9,1.6,5.7s8.3,2.8,11.5,2.7c3.2,0,8.6-2.4,9-3c1.5-2.3-4.3-1.6-7.2-1.4
	c-2.8,0.2-6.1,0.1-5.8-1.3c0.3-1.4,5.8-1.4,6.6-2.8C390.4,468.3,382.5,468.9,382.5,468.9z"/>
<path class="st7" d="M300.5,399.6c-0.7,3.3,0.4,5-10.3,10.1c-10.7,5.1-14.1,2.9-17.4,8.4c0,0,1.5-9.1,7.4-12.2
	c5.9-3.1,16.1-5.1,19.4-12.4C299.6,393.6,301,397.4,300.5,399.6z"/>
<path class="st4" d="M277.4,442.7v0.2c0,0.1,0,0.1,0.1,0.2c0,0.1,0.1,0.2,0.1,0.4c0.2,0.6,0.5,1.5,1.1,2.7s1.4,2.6,2.5,4.2
	c1.1,1.6,2.6,3.2,4.4,4.9c0.9,0.8,1.9,1.6,2.9,2.5c1.1,0.8,2.2,1.6,3.4,2.3c1.2,0.8,2.5,1.5,3.9,2.2c0.7,0.3,1.4,0.7,2.1,1
	c0.7,0.4,1.4,0.7,2.2,1c0.7,0.3,1.5,0.6,2.2,0.9c0.8,0.3,1.6,0.6,2.3,0.8c1.6,0.6,3.2,1.1,4.8,1.6c1.6,0.5,3.3,0.9,5,1.3
	c1.7,0.4,3.4,0.7,5.2,1.1c1.7,0.3,3.5,0.6,5.2,0.9c1.7,0.3,3.5,0.4,5.2,0.7c1.7,0.2,3.5,0.3,5.2,0.5c0.9,0.1,1.7,0.1,2.6,0.2
	c0.9,0,1.7,0.1,2.5,0.1c1.7,0.1,3.3,0.2,5,0.2c1.6,0,3.2,0.1,4.8,0.1c3.1,0.1,6,0,8.7-0.1s5.2-0.2,7.4-0.3c2.2-0.1,4.1-0.2,5.7-0.3
	c3.2-0.2,5-0.3,5-0.3l0,0c0.7,0,1.3,0.5,1.4,1.2c0,0.7-0.4,1.3-1.1,1.4c0,0-1.8,0.3-5,0.8c-1.6,0.2-3.5,0.6-5.7,0.8
	c-2.2,0.3-4.7,0.6-7.4,0.9c-2.7,0.2-5.7,0.6-8.9,0.7c-1.6,0.1-3.2,0.2-4.9,0.3c-1.7,0.1-3.4,0.1-5.1,0.1c-0.9,0-1.7,0-2.6,0
	s-1.8,0-2.7,0c-1.8-0.1-3.6,0-5.4-0.2c-1.8-0.1-3.7-0.2-5.5-0.4s-3.7-0.4-5.6-0.6c-1.9-0.3-3.7-0.5-5.6-0.8
	c-1.8-0.4-3.7-0.7-5.5-1.2s-3.6-0.9-5.4-1.4c-0.9-0.3-1.8-0.5-2.6-0.8c-0.9-0.3-1.7-0.6-2.6-0.9c-0.9-0.3-1.7-0.6-2.5-1
	s-1.6-0.7-2.4-1.1c-1.6-0.8-3.1-1.5-4.6-2.4c-1.5-0.8-2.8-1.8-4.2-2.7c-1.3-1-2.5-1.9-3.7-2.9c-2.3-2-4.2-4-5.7-6.1
	c-1.5-2-2.6-3.9-3.5-5.6c-0.8-1.7-1.3-3.1-1.6-4.1c-0.3-1-0.4-1.9-0.4-1.8c-0.4-2.5,1.3-4.8,3.7-5.2
	C274.7,438.5,277,440.2,277.4,442.7z"/>
<path class="st7" d="M298.5,400.2c0,0,0.4,11,10,16.3c0,0-4.2-8.3-3.9-13.7C304.8,397.3,297.9,396.4,298.5,400.2z"/>
<path class="st7" d="M193,676.6c-0.4-0.9,0-1.9,0.8-2.4c0.7-0.4,2.5-1.5,3.9-2.4c0.6-0.4,1.3,0,1.4,0.7c0.9,7.9,4.5,15,11.1,18.4
	c1.7,2.3,2,6.3,1.1,7.5c-0.2,0.3-3.4-0.8-6-3.8C193.7,681.3,193,676.6,193,676.6z"/>
<path class="st4" d="M901.5,635.6c-0.5-0.1-0.9-0.2-1.3-0.3c-1.1-0.2-2.5-0.2-3.7-0.1c-2.1,0.2-4.2-0.2-6-1.1l-7.7-3.8
	c-3.3-1.6-6.8,1.7-5.3,5.1l0,0c0.1,0.3,0.4,0.5,0.6,0.6l9.1,4.1c2.7,1.2,5,3,6.8,5.2l2.6,3.2C902.1,645.1,901.3,638.8,901.5,635.6z"
	/>
<path class="st7" d="M898.2,662.3c0.4-4.4-1.6-11.7-2.6-14.1c2.4-4.3,2.4-9,1-13.2c1.2-0.1,2.6-0.1,3.6,0.1c1.5,0.3,4.9,0.8,6.2,1.1
	c1,0.2,1.7,1.1,1.6,2.1c0,0-4.4,31.7-5.3,31.1C901.1,668.3,897.9,666,898.2,662.3z"/>
<path class="st14" d="M732.8,604.3c-2.5,9.7-19.7,86.2-16.3,86.3c3,0.1,34.4-71.3,36.9-81.1c2.5-9.7-0.2-18.8-5.8-20.2
	C741.9,587.8,735.3,594.6,732.8,604.3z"/>
<path class="st14" d="M770.7,526.6c-8.3,10.1-45.4,76.5-37.6,83s59.3-48.5,67.7-58.7c8.3-10.1,7.1-24.5-0.8-31
	C792.1,513.5,779,516.5,770.7,526.6z"/>
<path class="st4" d="M720.8,701.2c0-0.5,0.1-0.9,0.1-1.3c0.1-1.1-0.2-2.5-0.4-3.7c-0.5-2-0.4-4.1,0.2-6.1l2.6-8.2
	c1.1-3.5-2.7-6.4-5.8-4.5l0,0c-0.3,0.2-0.5,0.4-0.5,0.7l-2.7,9.6c-0.8,2.8-2.2,5.4-4.2,7.5l-2.8,3
	C711.6,703.1,717.7,701.4,720.8,701.2z"/>
<path class="st7" d="M694,701.7c4.4-0.3,11.3-3.3,13.6-4.6c4.6,1.7,9.3,1.1,13.2-0.9c0.3,1.2,0.5,2.5,0.4,3.6
	c-0.1,1.5-0.1,4.9-0.2,6.3c0,1-0.8,1.8-1.8,1.9c0,0-32,0.3-31.5-0.7C688.5,705.5,690.3,702,694,701.7z"/>
<path class="st7" d="M753.4,609.5c-1.5,6-20.3,52.6-30.4,74.3c-3-1.2-4.7-1.1-7.8-2c4-20.4,11-65.9,13.4-75.7
	c1-13.7,34.5-70,42.2-79.4c8.3-10.1,21.4-13.1,29.3-6.7c7.9,6.5,9.1,20.9,0.8,31C795.4,557.5,754.4,605.4,753.4,609.5z"/>
<path class="st7" d="M793.7,609.9L793.7,609.9C793.7,609.8,793.7,609.8,793.7,609.9c-0.4-0.7-0.6-1.3-0.8-2
	c-5.5-16.4-4-76.1-2.2-88.2c0.5-3.2,1.4-6.2,2.7-8.9l17.7,9.6c4.4,5,9.7,9.5,15.7,13.1c0.9,0.5-0.3-1.8,0.6-1.3
	c-2.5,15.7-5.9,46.8-7.1,62.4c-0.3,3.5,1.7,6.8,5,8.2c16.5,6.9,45.8,20.4,62.2,29.2l-0.6,9.3c-23.9-5-71.6-19.2-78.9-21.3
	C801.2,618,795.9,614,793.7,609.9z"/>
<path class="st2" d="M774.3,459.3c0,0,0,0.1,0,0.3c0,0.1,0,0.3,0,0.4c0,0.2,0,0.3,0,0.5c-0.1,0.8-0.2,1.9-0.4,3.3
	c-0.2,1.4-0.6,3.1-1.1,5s-1.2,4-2.1,6.3c-0.9,2.2-2.1,4.6-3.5,7c-1.5,2.4-3.2,4.8-5.2,7c-0.5,0.6-1.1,1.1-1.6,1.7l-0.8,0.8l-0.9,0.8
	c-0.6,0.5-1.2,1-1.8,1.5s-1.3,0.9-1.9,1.4c-0.6,0.5-1.3,0.9-2,1.3c-0.7,0.4-1.3,0.9-2,1.3c-1.4,0.7-2.8,1.5-4.3,2.1l-2.2,0.9
	c-0.7,0.3-1.5,0.5-2.2,0.8c-0.8,0.2-1.5,0.5-2.2,0.7c-0.8,0.2-1.5,0.4-2.3,0.6c-1.5,0.4-3,0.6-4.5,0.9c-1.5,0.3-2.9,0.4-4.4,0.5
	c-0.7,0.1-1.4,0.2-2.1,0.2c-0.7,0-1.4,0-2.1,0.1c-1.4,0-2.7,0.1-4,0c-1.3,0-2.6-0.1-3.8-0.1c-1.2-0.1-2.4-0.2-3.5-0.3
	c-2.3-0.2-4.3-0.5-6.1-0.8c-0.9-0.1-1.8-0.3-2.5-0.4c-0.8-0.2-1.5-0.3-2.1-0.4c-2.6-0.5-4-0.8-4-0.8c-0.7-0.2-1.2-0.9-1-1.6
	c0.1-0.7,0.8-1.1,1.5-1.1h0.1c0,0,1.5,0.2,4,0.4c0.6,0.1,1.3,0.2,2.1,0.2c0.8,0.1,1.6,0.1,2.5,0.2c1.8,0.1,3.8,0.3,6,0.2
	c1.1,0,2.2,0,3.4,0c1.2-0.1,2.4-0.1,3.6-0.2c1.2,0,2.5-0.2,3.8-0.3c0.6-0.1,1.3-0.1,1.9-0.2c0.7-0.1,1.3-0.2,2-0.3
	c1.3-0.2,2.7-0.4,4-0.8c1.3-0.3,2.7-0.6,4-1.1c0.7-0.2,1.3-0.4,2-0.6c0.7-0.2,1.3-0.5,1.9-0.8c0.6-0.3,1.3-0.5,1.9-0.8l1.8-0.9
	c1.3-0.6,2.4-1.4,3.5-2.1c0.6-0.4,1.1-0.8,1.6-1.2s1.1-0.8,1.6-1.2s1-0.9,1.5-1.3c0.5-0.5,0.9-0.9,1.4-1.4l0.7-0.7l0.6-0.7
	c0.4-0.5,0.8-1,1.2-1.4c1.6-2,2.8-4,4-6.1c1.1-2.1,1.9-4.1,2.6-6c0.6-1.9,1.1-3.7,1.5-5.3c0.3-1.6,0.6-3,0.7-4.2
	c0.1-1.2,0.2-2.1,0.2-2.7c0-0.1,0-0.3,0-0.4c0-0.1,0-0.2,0-0.2c0-0.2,0-0.2,0-0.2V459c0-2.6,2.1-4.7,4.7-4.7c2.6,0,4.7,2.1,4.7,4.7
	C774.3,459.1,774.3,459.2,774.3,459.3z"/>
<path class="st11" d="M750,473c1.6-3.5,8-17.2,8.8-20.5v-0.2c0.1-0.3,0.1-0.5,0.2-0.8c1.7-5,7.1-7.7,12.1-6s7.7,7.1,6,12.1
	c-1.6,4.7-3.2,8.6-5.1,12.7c-1.3,2.7-2.7,5.4-4.2,8.1C766.3,477.1,750,473.1,750,473z"/>
<path class="st4" d="M771.1,538.2c7.9,6.5,40.8,5.2,53.1,4.5c3.1-0.2,5.4-3,4.9-6c-1.3-7.8-6.7-21.1-9.9-35
	c-4.7-20-9.1-42.1-11.5-54.1c-1-4.9-5.7-8.2-10.7-7.4l-30,5c-4.6,0.8-7.9,4.9-7.5,9.6c0.8,9.7,2.2,26.5,3.5,42.9
	C764.3,514.3,762.7,531.2,771.1,538.2z"/>
<path class="st11" d="M766.7,445.1l4.9-0.8c2.3,3.6,6.4,6.1,12,5.2c5.6-0.9,8.7-4.6,9.7-8.8l4.4-0.7c4.5-0.8,8.9,2.2,9.7,6.8
	c2.3,11.8,6.8,34.5,11.6,54.9c3.3,14.1,8.7,27,9.9,34.9c0.5,3.1-1.8,5.9-5,6.1c-12.3,0.7-45.1,2-53-4.5c-8.4-7-6.8-23.8-8.1-40.5
	c-1.3-16.6-2.7-33.6-3.5-43.2C759.1,449.9,762.2,445.8,766.7,445.1z"/>
<path class="st7" d="M782.6,428.7l0.6-0.2c4.3-1.2,6.7-5.7,5.5-10l-3.3-11.4l-8.3,2.4L782.6,428.7z"/>
<polygon class="st4" points="775.9,445.1 790.4,444.1 790.9,442 782.4,426.8 772.3,431 "/>
<path class="st2" d="M772.3,431l10-4.3l3.4,6.1c-1.6,3.3-3.5,7-7.3,8c-1.2,0.3-2.6,0.2-3.7-0.1L772.3,431z"/>
<path class="st4" d="M777.4,437.3L777.4,437.3c7-2,11.1-9.3,9.1-16.4l-4.1-14.2l-21.8,6.3c0,0,3.2,11.1,6.9,18.1
	C770.2,436.3,773.8,438.3,777.4,437.3z"/>
<rect x="781.2" y="412.3" transform="matrix(0.9612 -0.2758 0.2758 0.9612 -83.6064 232.0753)" class="st15" width="4.3" height="1.9"/>
<path class="st4" d="M782,419.3c0.8,2.8,2.8,4.6,4.4,4.2c1.6-0.5,2.4-4.6,1.6-7.4c-0.8-2.8-2.8-3.1-4.5-2.6
	C781.9,413.9,781.2,416.5,782,419.3z"/>
<path class="st7" d="M760.7,419.2c-1-1.6-1.7-3.4-1.9-5.3c0,0-1.9-6.3,0.2-8.2c1.9-1.7,6.2-1.4,8.8-1.6c1.9-0.1,7.4-2.1,7.4-2.1
	c4.4-1.3,9,1.3,10.3,5.7l0.5,1.7l-2.7,4.4l-0.1,3.6l-0.3,0.1c-1.4,0.4-2.9-0.4-3.4-1.7c-0.8-2.2-2.9-3.7-5.2-3l-6.5,1.9
	c-4,1.1-5.4,3.9-4.6,6.8l0.9,2.5L760.7,419.2z"/>
<path class="st7" d="M706.3,452.7l-1.3-3.4c2.3-3.5,3-7.9,1.7-12.1c-2.4-7.4-11.1-11.6-18.3-8.9c-7.4,2.8-11,11-8.2,18.3
	c1.7,4.4,5.5,7.5,9.8,8.5l1.3,3.4L654.2,473c-3.2,1.3-4.8,4.9-3.6,8.1l14.3,36.7l-2,0.8c-3.5-2.3-7.9-3-12.1-1.7
	c-7.4,2.4-11.6,11.1-8.9,18.3c2.8,7.4,11,11,18.3,8.2c4.4-1.7,7.5-5.5,8.5-9.8l2-0.8l14.3,36.7c1.3,3.2,4.9,4.8,8.1,3.6l88.4-34.6
	c3.2-1.3,4.8-4.9,3.6-8.1L750.5,442c-1.3-3.2-4.9-4.8-8.1-3.6L706.3,452.7z"/>
<path class="st4" d="M811.4,448.7c1.3,23.7-12,51.9-40,58.8c-22.2,5.5-46.2-0.6-67.3-9.7c-1.4-0.6-2-2.2-1.4-3.6
	c0.5-1.2,1.8-1.9,3.1-1.6l0,0c29.4,6.2,66.9,10.3,80.8-16.5c7-13.2,5.8-29.1,5.8-26.8C792.2,437,810.8,436.4,811.4,448.7z"/>
<path class="st11" d="M789.5,467.6c2.2-10.1,2.5-18.2,2.5-18.4v0.3l1.6-6.4c0,0,3.1-5.1,11.4-3.1c6.7,1.6,6.6,9.2,6.6,9.2
	c0,1.1,2.4,8.7-4.1,25.2C807.6,474.3,789.2,469,789.5,467.6z"/>
<path class="st4" d="M707.4,493.1c-1.8-2.2-2.3-9.7-3.4-9.7c-0.7,0-0.9,2.6-0.9,4.1c0,0.2-0.1,0.3-0.3,0.4c-0.2,0.1-0.3,0-0.5-0.1
	c-2.1-1.8-8-7-8.6-6.5s2.5,4.3,3.6,5.6v0.1c0,0-0.1,0.1-0.1,0c-1.7-0.8-7.1-3.5-7.2-2.4c-0.1,1.1,4.6,4.1,6.4,5.2c0,0,0.1,0.1,0,0.1
	l-0.1,0.1c-2.1-0.6-7.3-2.1-7.5-1.1c-0.1,1,5,3.2,6.8,3.9l0.1,0.1c0,0.1-0.1,0.1-0.1,0.1c-1.8-0.1-6.5-0.4-5.8,0.3
	c0.9,0.9,12.2,4.6,14.7,4.6S707.4,493.1,707.4,493.1z"/>
<rect x="294.7" y="304.1" class="st7" width="480.6" height="4.5"/>
<rect x="489.3" y="388.8" class="st11" width="96.9" height="22.7"/>
<rect x="489.3" y="422.9" class="st13" width="96.9" height="22.7"/>
<rect x="489.3" y="457" class="st11" width="96.9" height="22.7"/>
<rect x="489.3" y="491.1" class="st13" width="96.9" height="22.7"/>
<rect x="325.8" y="329.8" class="st13" width="425.6" height="25"/>
<path class="st11" d="M521.5,341.8H391.2c-6.6,0-11.9-5.3-11.9-11.9v-30.1c0-6.6,5.3-11.9,11.9-11.9h130.3c6.6,0,11.9,5.3,11.9,11.9
	v30.1C533.4,336.5,528,341.8,521.5,341.8z"/>
<rect x="495.5" y="335.4" transform="matrix(0.7071 -0.7071 0.7071 0.7071 -94.6309 454.8344)" class="st11" width="12.4" height="12.4"/>
<rect x="397.5" y="301.5" class="st0" width="114.2" height="4.2"/>
<rect x="397.5" y="312.7" class="st0" width="114.2" height="4.2"/>
<rect x="397.5" y="323.9" class="st0" width="114.2" height="4.2"/>
<rect x="494.7" y="506.1" class="st11" width="12.4" height="12.4"/>
<circle class="st11" cx="468" cy="546.5" r="48.6"/>
<path class="st0" d="M453.3,546.6c0,2.2-1.8,4-4,4s-4-1.8-4-4s1.8-4,4-4C451.6,542.6,453.3,544.4,453.3,546.6z"/>
<path class="st0" d="M470.7,546.6c0,2.2-1.8,4-4,4s-4-1.8-4-4s1.8-4,4-4S470.7,544.4,470.7,546.6z"/>
<path class="st0" d="M488,546.6c0,2.2-1.8,4-4,4s-4-1.8-4-4s1.8-4,4-4S488,544.4,488,546.6z"/>
</svg>
