<?xml version="1.0" encoding="utf-8"?>
<!-- Generator: Adobe Illustrator 24.2.3, SVG Export Plug-In . SVG Version: 6.00 Build 0)  -->
<svg version="1.1" id="Layer_1" xmlns="http://www.w3.org/2000/svg" xmlns:xlink="http://www.w3.org/1999/xlink" x="0px" y="0px"
	 viewBox="0 0 1080 1080" style="enable-background:new 0 0 1080 1080;" xml:space="preserve">
<style type="text/css">
	.st0{fill:#F7F7F7;}
	.st1{fill:#D3D3D3;}
	.st2{fill:#FA968C;}
	.st3{fill:#264C51;}
	.st4{fill:#FAB9AF;}
	.st5{fill:#F57A2F;}
	.st6{fill:#0091C8;}
	.st7{fill:#133233;}
	.st8{fill:#FF8C46;}
	.st9{fill:#41378C;}
	.st10{fill:none;stroke:#00AEF0;stroke-width:2;stroke-miterlimit:10;}
	.st11{fill:#FFBE55;}
	.st12{fill:none;stroke:#727272;stroke-miterlimit:10;}
	.st13{opacity:0.4;fill:#264C51;enable-background:new    ;}
	.st14{fill:#41B4E6;}
	.st15{fill:#CD5014;}
</style>
<circle class="st0" cx="537.8" cy="574.5" r="400"/>
<path class="st1" d="M1031,881.6c0,13.1-10.6,23.7-23.7,23.7H110.7c-13.1,0-23.7-10.6-23.7-23.7l0,0c0-13.1,10.6-23.7,23.7-23.7
	h896.5C1020.4,857.8,1031,868.5,1031,881.6L1031,881.6z"/>
<path class="st2" d="M723.9,265.3c0.2-2.8,5.1-8.6,4.3-9.3c-0.5-0.5-2.4,1.3-3.5,2.3c-0.1,0.1-0.3,0.2-0.5,0.1
	c-0.2-0.1-0.3-0.2-0.3-0.4c-0.2-2.8-0.9-10.6-1.7-10.7c-0.8-0.1-1.2,4.9-1.3,6.5c0,0.1,0,0.1-0.1,0.1s-0.1,0-0.1-0.1
	c-0.6-1.8-2.7-7.4-3.5-6.7c-0.8,0.7,0.5,6.1,1,8.2c0,0.1,0,0.1-0.1,0.1s-0.1,0-0.1,0c-1.1-1.9-3.8-6.6-4.6-6
	c-0.8,0.6,1.4,5.7,2.2,7.6c0,0,0,0.1,0,0.1c0,0-0.1,0-0.1,0c-1.2-1.4-4.4-4.8-4.3-3.8c0,1.3,5.6,11.7,7.4,13.5
	C720.4,268.6,723.9,265.3,723.9,265.3z"/>
<path class="st2" d="M773.7,300.4c-3.8,8.3-9.2,17.8-15.7,24.3c-12.7,12.6-29.1,9.3-34.8-20.1c-1-4.4-1.7-8.9-2.3-13.3
	c-1.2-8.8-1.6-17.6-2-26.4c-0.1-1.3,1-2.5,2.3-2.5c1.2-0.1,2.2,0.8,2.5,1.9l0,0c1.7,8.5,3.5,17,5.7,25.2c1.1,4.1,2.3,8.2,3.7,12.1
	c1.2,3.7,6,15.3,9.7,16.4c0.1,0,0.2,0.1,0.3,0.1c0.1-0.1,0.1-0.1,0.1,0c0.1-0.1,0.1-0.1,0.2-0.1c0.2-0.2,0.4-0.2,0.9-0.6
	c0.8-0.5,1.9-1.6,3-2.9c2.2-2.6,4.2-6,6-9.5c3.1-6,4.9-10.3,4.9-10.3c3.8-10.4,19.5-5.4,15.7,5C773.9,300,773.8,300.2,773.7,300.4z"
	/>
<path class="st3" d="M748.5,311.6C748.5,311.6,748.5,311.6,748.5,311.6c2-2.9,3.7-5.8,5.4-8.8c1.6-2.9,3.3-6.2,4.4-9l0.1-0.1
	c0.1-0.2,0.2-0.4,0.3-0.7c2.2-4.1,7.2-5.7,11.3-3.5c4.1,2.2,5.7,7.2,3.5,11.3c-2,3.8-4,7-6.2,10.3c-1.5,2.2-3.1,4.3-4.8,6.4
	C761.3,316.2,751.4,312.7,748.5,311.6z"/>
<path class="st4" d="M756.7,369.9c7.3,8.4,49.5,11.9,49.5,11.9c3.1-3.6-1.4-20-2.5-36.7c-1.2-18-1.9-37.9-2.2-48.6
	c-0.1-4.4-3.8-8-8.2-8h-26.8c-4.1,0-7.6,3.1-7.9,7.3c-0.7,8.5-1.9,23.3-3.1,37.8C754.2,348.3,750.4,362.7,756.7,369.9z"/>
<path class="st2" d="M781,510l-0.1,16.6l1.4,8.1c0.2,1.4-0.8,2.7-2.2,2.7c-6.8,0.2-24.2,0.7-24.6-0.1c-2.2-3.5,7.7-4.9,14.9-7.7
	c7.2-2.8,2.2-30.2,2.2-30.2L781,510z"/>
<path class="st5" d="M770.5,529.6c0,0,0.1,0,0.1-0.1c1.7,0.6,3.7,1,5.8,1c1.9,0,3.6-0.3,5.1-0.8l0.9,4.8c0.2,1.4-0.8,2.7-2.2,2.7
	c-6.8,0.2-24.2,0.7-24.6-0.1C753.4,533.8,763.2,532.4,770.5,529.6z"/>
<path class="st6" d="M756.7,376c-0.3,11.5,4.3,84.6,13.2,84.8c9,0.2,18.9-72.6,19.2-84.1c0.3-11.5-6.8-21-15.7-21.2
	C764.4,355.3,757,364.5,756.7,376z"/>
<path class="st7" d="M782.3,445.6c0.9,6.3,1,47-0.4,67.6h-8.2c-4.4-20-9.1-58.9-9.9-65.1c0-0.1,0-0.2,0-0.2
	c-4.9-21.5-7.3-63.5-7.1-72c0.3-11.5,7.7-20.7,16.7-20.5s16,9.7,15.7,21.2C789,384,781.9,442.6,782.3,445.6z"/>
<path class="st2" d="M800.6,510l-0.1,16.6l1.4,8.1c0.2,1.4-0.8,2.7-2.2,2.7c-6.8,0.2-24.2,0.7-24.6-0.1c-2.2-3.5,7.7-4.9,14.9-7.7
	s2.2-30.2,2.2-30.2L800.6,510z"/>
<path class="st8" d="M790,529.6c0,0,0.1,0,0.1-0.1c1.7,0.6,3.7,1,5.8,1c1.9,0,3.6-0.3,5.1-0.8l0.9,4.8c0.2,1.4-0.8,2.7-2.2,2.7
	c-6.8,0.2-24.2,0.7-24.6-0.1C772.9,533.8,782.8,532.4,790,529.6z"/>
<path class="st6" d="M776.3,376c-0.3,11.5,4.3,84.6,13.2,84.8c9,0.2,17-72.9,17.3-84.4c0.3-11.5-4.8-20.8-13.8-21
	S776.5,364.5,776.3,376z"/>
<path class="st7" d="M801.9,445.6c0.9,6.3,1,47-0.4,67.6h-8.2c-4.4-20-9.1-58.9-9.9-65.1c0-0.1,0-0.2,0-0.2
	c-4.9-21.5-9.2-63.8-9-72.3c0.3-11.5,9.7-20.4,18.6-20.2s14.1,9.4,13.8,21C806.6,383.7,801.4,442.6,801.9,445.6z"/>
<path class="st3" d="M766.2,288.5h4.3c1.5,3.5,4.7,6.2,9.7,6.2c5,0,8.2-2.7,9.7-6.2h4c4.1,0,7.4,3.2,7.5,7.3
	c0.3,10.6,1,30.9,2.2,49.3c1.1,16.7,5.6,32.1,2.5,36.7c0,0-42.2-3.5-49.5-11.9c-6.3-7.2-2.4-21.7-1.2-36.4c1.2-14.6,2.5-29.6,3.1-38
	C758.9,291.6,762.3,288.5,766.2,288.5z"/>
<path class="st7" d="M781.4,278.8l0.5,0.1c3.8,0.8,7.6-1.6,8.5-5.4l2.3-10.2l-7.4-1.6L781.4,278.8z"/>
<polygon class="st4" points="774.8,288.5 788.8,288.5 784.7,274.6 775.2,275.8 "/>
<path class="st2" d="M775.2,275.8l9.5-1.2l1.9,6.5c-2.1,2.4-5.3,6.1-8.8,6.1c-1.1,0-2.1-0.3-3-0.9L775.2,275.8z"/>
<path class="st4" d="M773.8,283.2L773.8,283.2c6.3,1.4,12.5-2.6,13.9-8.8l2.8-12.7l-19.5-4.3c0,0-2.2,9.9-2.3,16.9
	C768.7,279.5,770.6,282.5,773.8,283.2z"/>
<rect x="787.5" y="265.3" transform="matrix(0.2171 -0.9762 0.9762 0.2171 356.4561 978.7609)" class="st9" width="1.7" height="3.8"/>
<path class="st4" d="M784.9,271.2c-0.5,2.5,0.2,4.7,1.6,5.1c1.5,0.3,3.8-2.6,4.3-5c0.5-2.5-0.9-3.6-2.3-3.9
	C787.1,267,785.4,268.7,784.9,271.2z"/>
<path class="st7" d="M768.5,262.3c-0.1-1.7,0.2-3.4,0.8-4.9l0,0c1.6-3.9,5.9-5.5,9.8-4.2c0.4,0.1,0.8,0.3,1.3,0.4l6.6,1.5
	c4,0.9,6.5,4.8,5.6,8.8l-0.3,1.5l-3.9,2.3l-1.6,2.8l-0.3-0.1c-1.3-0.3-2.1-1.5-1.9-2.7c0.3-2.1-0.7-4.1-2.7-4.5l-5.8-1.3
	c-3.6-0.8-5.8,0.7-6.4,3.4l-0.3,2.3L768.5,262.3z"/>
<line class="st10" x1="787.1" y1="337.4" x2="883.4" y2="873"/>
<line class="st10" x1="803.3" y1="873" x2="707.1" y2="337.4"/>
<line class="st10" x1="713.5" y1="361.3" x2="791.7" y2="361.3"/>
<line class="st10" x1="718.7" y1="397.1" x2="798" y2="397.1"/>
<line class="st10" x1="725.9" y1="433" x2="804.5" y2="433"/>
<line class="st10" x1="732.9" y1="468.8" x2="811" y2="468.8"/>
<line class="st10" x1="737.1" y1="504.6" x2="816.2" y2="504.6"/>
<line class="st10" x1="742.6" y1="539.8" x2="822.8" y2="539.8"/>
<line class="st10" x1="750.6" y1="576.3" x2="829.6" y2="576.3"/>
<line class="st10" x1="757.1" y1="612.1" x2="836.2" y2="612.1"/>
<line class="st10" x1="763.5" y1="646" x2="842.6" y2="646"/>
<line class="st10" x1="768.9" y1="679.9" x2="848" y2="679.9"/>
<line class="st10" x1="775.1" y1="713.7" x2="854.2" y2="713.7"/>
<line class="st10" x1="781.1" y1="747.6" x2="860.3" y2="747.6"/>
<line class="st10" x1="787" y1="781.5" x2="866.1" y2="781.5"/>
<line class="st10" x1="793.9" y1="815.3" x2="873" y2="815.3"/>
<line class="st10" x1="707.1" y1="337.4" x2="610" y2="874.2"/>
<line class="st10" x1="690.1" y1="874.2" x2="787.1" y2="337.4"/>
<line class="st10" x1="780.7" y1="361.3" x2="702.8" y2="361.3"/>
<line class="st10" x1="775.5" y1="397.1" x2="696.2" y2="397.1"/>
<line class="st10" x1="768.3" y1="433" x2="689.7" y2="433"/>
<line class="st10" x1="761.3" y1="468.8" x2="683.2" y2="468.8"/>
<line class="st10" x1="755.7" y1="504.6" x2="676.7" y2="504.6"/>
<line class="st10" x1="750.4" y1="539.8" x2="670.3" y2="539.8"/>
<line class="st10" x1="742.5" y1="576.3" x2="663.6" y2="576.3"/>
<line class="st10" x1="737.1" y1="612.1" x2="658" y2="612.1"/>
<line class="st10" x1="731" y1="652.3" x2="651.9" y2="652.3"/>
<line class="st10" x1="721.8" y1="692.5" x2="642.7" y2="692.5"/>
<line class="st10" x1="715" y1="732.7" x2="635.8" y2="732.7"/>
<line class="st10" x1="708.5" y1="772.9" x2="629.4" y2="772.9"/>
<line class="st10" x1="700.1" y1="813.5" x2="620.9" y2="813.5"/>
<path class="st7" d="M788.2,257.6c0.4,3.6-12.5,8.2-16,8.6c-3.4,0.4-6.6-2.2-7-5.8s2-6.9,5.4-7.3C774,252.7,787.7,254,788.2,257.6z"
	/>
<path class="st11" d="M608.7,263.1c-4.2,0.7-6.9,4.7-6.2,8.9l7.1,40l2.7-0.5c2.4-5.2,7.8-9,14.3-9c6.2,0.1,11.9,4,14.1,9.8
	c3.6,9.4-2.3,19.3-11.7,21c-5.2,0.9-10.2-0.9-13.6-4.3l-2.7,0.5l7.8,44.2c0.7,4.2,4.7,6.9,8.9,6.2l40-7.1l-0.5-2.7
	c-5.2-2.4-9-7.8-9-14.3c0.1-6.2,4-11.9,9.8-14.1c9.4-3.6,19.3,2.3,21,11.7c0.9,5.2-0.9,10.2-4.3,13.6l0.5,2.7l44.2-7.8
	c4.2-0.7,6.9-4.7,6.2-8.9l-18-101.7c-0.7-4.2-4.7-6.9-8.9-6.2L608.7,263.1z"/>
<path class="st4" d="M803,302.2c-4.3,5.9-11.7,13.6-20.5,20.3c-27,19.7-56,21.7-79.6-0.6c-1-0.9-1-2.4-0.1-3.4c0.8-0.8,2-1,3-0.4
	l0.1,0.1c15.4,8.9,29.2,12.5,46.5,5.2c22.7-9.8,38.9-33.4,37.2-31.1c2.8-3.7,8-4.4,11.7-1.6C805,293.3,805.7,298.5,803,302.2z"/>
<path class="st3" d="M777.2,305.7c5.6-5.1,12.8-15,12.8-15s3.4-4,10.4-1.1c5.6,2.3,4.5,8.9,4.5,8.9c-0.1,0.9-2,11.8-14.8,21.4
	C789.9,320,776.2,306.6,777.2,305.7z"/>
<path class="st4" d="M707.4,319.1c-1.8-2.2-2.3-9.7-3.4-9.7c-0.7,0-0.9,2.6-0.9,4.1c0,0.2-0.1,0.3-0.3,0.4c-0.2,0.1-0.3,0-0.5-0.1
	c-2.1-1.8-8-7-8.6-6.5c-0.6,0.5,2.5,4.3,3.6,5.6c0,0,0,0.1,0,0.1c0,0-0.1,0.1-0.1,0c-1.7-0.8-7.1-3.5-7.2-2.4
	c-0.1,1.1,4.6,4.1,6.4,5.2c0,0,0.1,0.1,0,0.1s-0.1,0.1-0.1,0.1c-2.1-0.6-7.3-2.1-7.5-1.1c-0.1,1,5,3.2,6.8,3.9c0,0,0.1,0.1,0.1,0.1
	c0,0.1-0.1,0.1-0.1,0.1c-1.8-0.1-6.5-0.4-5.8,0.3c0.9,0.9,12.2,4.6,14.7,4.6C707.2,323.9,707.4,319.1,707.4,319.1z"/>
<rect x="267.5" y="447" class="st3" width="534.9" height="325.4"/>
<rect x="294.7" y="471.4" class="st0" width="480.6" height="276.7"/>
<rect x="326" y="541" class="st12" width="123.2" height="176.5"/>
<rect x="476.9" y="541" class="st12" width="123.2" height="176.5"/>
<rect x="627.8" y="541" class="st12" width="123.2" height="176.5"/>
<path class="st2" d="M220.3,820.3c0,0-11,12.6-13,14.6c-1.7,1.7-4,2.3-6.3,2.9c-0.7,0.2-1.7,0.9-2.5,1.6c-0.6,0.5-0.9,1.3-0.9,2.1
	c0.3,14.2,12.6,24.2,13.3,23.4c1.2-1.5,0.3-5.7-2.1-8.4c-2.4-2.8-3-6.7-1.9-10.2l0,0c0.8-2.8,2.4-5.3,4.5-7.3l9.5-8.9L220.3,820.3z"
	/>
<path class="st2" d="M332.5,838.2l8.7,14.6c2.7,4.5,3.7,9.7,2.8,14.9c0,0,0,0,0,0c-0.5,2.9,1.7,5.5,4.6,5.6
	c9.4,0.2,27.6,0.6,28.1-0.3c2.7-4.4-8.8-6.3-17.9-9.4c-6.1-2.1-13.6-18.6-18.3-31.5l-7.1,4.5C332.8,837,332.5,837.6,332.5,838.2z"/>
<path class="st7" d="M358.6,868.6c3.9,0,7.8-0.9,11.4-1.6c0.4-0.1,0.9-0.1,1.3,0.1c4.2,1.5,6.8,3.6,5.4,5.9
	c-0.6,0.9-22,0.5-30.3,0.2c-1.7,0-3-1.6-2.7-3.4l0.5-3.1C348.9,867.9,353.7,868.6,358.6,868.6z"/>
<path class="st7" d="M301.3,673.4c-9.7-1.9-21.2,6-23.7,18.4c-1.4,7.1-3.5,33.7-3.2,55.5c0.1,8.3-3.9,16.3-11,20.7
	c-1.2,0.7-2.2,1.5-3.1,2.3c-4.8,4.3-26.9,32.1-40.8,51c-0.4,2.9,0,7,1.6,9c17.8-13.9,47.9-40.2,53-44.8c2.8-2.6,6-5.6,8.5-8.5
	c10.9-7.3,28.6-63.2,31-74.7C316,689.8,310.9,675.4,301.3,673.4z"/>
<ellipse class="st7" cx="295.2" cy="592.9" rx="15" ry="19.4"/>
<path class="st7" d="M291.6,594.9c-0.2-10.7-8.9-19.7-19.6-20.3c-9.5-0.5-17.7,5.3-20.8,13.6c-1.1,2.9-3.9,4.8-7,4.8
	c-1.3,0-2.6,0.1-4,0.4c-7.8,1.6-13.9,8.2-14.8,16.2c-0.7,7.2,2.6,13.6,8,17.3c2.3,1.6,3.6,4.2,4,6.9c1.8,12.8,13.4,22.2,26.8,20.7
	c11.4-1.2,20.5-10.6,21.5-22c0.6-7-1.8-13.4-6-18.2C286.9,610.8,291.8,603.4,291.6,594.9z"/>
<path class="st13" d="M424,597.6c-3.8-0.8-7.3,0.8-9.2,3.6h-2.3v-20.8c0-3.8-3.1-6.9-6.9-6.9h-23.2v-2.3c2.8-1.9,4.4-5.4,3.6-9.2
	c-0.7-3.3-3.3-5.9-6.6-6.7c-5.8-1.3-11,3.1-11,8.6c0,3,1.5,5.7,3.8,7.3v2.3h-20.8c-3.8,0-6.9,3.1-6.9,6.9v20.8h1.5
	c1.9-2.8,5.4-4.4,9.2-3.6c3.3,0.7,5.9,3.3,6.7,6.6c1.3,5.8-3.1,11-8.6,11c-3,0-5.7-1.5-7.3-3.8h-1.5v23.2c0,3.8,3.1,6.9,6.9,6.9
	h20.8v-1.6c-2.8-1.9-4.4-5.4-3.6-9.2c0.7-3.3,3.3-5.9,6.6-6.7c5.8-1.3,11,3.1,11,8.6c0,3-1.5,5.7-3.8,7.3v1.6h23.2
	c3.8,0,6.9-3.1,6.9-6.9v-23.2h2.3c1.6,2.3,4.3,3.8,7.3,3.8c5.6,0,10-5.2,8.6-11C429.9,600.9,427.3,598.3,424,597.6z"/>
<path class="st7" d="M295.2,567.1c0,0,8.5,5.3,7.4,12.5c0,0,4.5-3.2,5.5-14.2C308.9,557.8,295.2,567.1,295.2,567.1z"/>
<path class="st4" d="M310.8,610.7c0,0,0,0.4,0,1.1c0,0.7,0,1.5,0.1,2.8c0.1,2.4,0.4,5.9,1.3,9.9c0.5,2,1.1,4.2,1.9,6.3
	c0.9,2.1,2,4.2,3.4,5.8c0.7,0.8,1.4,1.4,2.2,1.8c0.7,0.4,1.4,0.5,2.1,0.4c1.6-0.1,3.6-1.7,5.4-3.6c1.8-1.9,3.3-4.3,4.7-6.8
	c1.4-2.4,2.6-5,3.7-7.5c2.2-5,3.9-9.9,5.3-14.1c1.4-4.2,2.4-7.8,3.2-10.3c0.7-2.5,1.1-3.9,1.1-3.9l0,0c0.2-0.7,0.9-1.1,1.6-0.9
	c0.7,0.2,1,0.8,0.9,1.5c0,0-0.3,1.5-0.8,4.1c-0.3,1.3-0.5,2.9-0.9,4.7c-0.4,1.8-0.8,3.8-1.4,6c-1.1,4.4-2.5,9.5-4.3,14.9
	c-1,2.7-2,5.5-3.4,8.3c-1.3,2.8-2.8,5.6-4.9,8.2c-1,1.3-2.2,2.6-3.6,3.8c-1.4,1.1-3.2,2.2-5.3,2.6c-2.1,0.5-4.5,0.2-6.4-0.6
	c-1.9-0.8-3.4-2-4.7-3.2c-2.5-2.5-4-5.2-5.2-7.8c-1.2-2.6-2.1-5.1-2.7-7.4c-1.3-4.7-1.8-8.6-2.1-11.4c-0.1-1.4-0.2-2.6-0.2-3.3
	c0-0.7,0-1.1,0-1.1c-0.1-2.5,1.9-4.6,4.4-4.7c2.5-0.1,4.6,1.9,4.7,4.4C310.8,610.6,310.8,610.7,310.8,610.7z"/>
<path class="st4" d="M304.7,647.9c3.4-10.2,10.2-31.8,9.6-38.8c-0.4-4.5-4.1-8-8.7-8h-29.4c-4.9,0-8.9,3.9-9,8.7
	c-0.2,8.5,3.7,27.9,5.9,38.1H304.7z"/>
<path class="st4" d="M298.9,693.9c3.4,12.2,30.9,99,21.4,101.7c-9.5,2.6-61.1-82.1-61.8-94.8c-0.6-12,6.3-25,15.8-27.6
	C283.8,670.5,295.5,681.7,298.9,693.9z"/>
<path class="st7" d="M341.4,835.5c0.4-0.4,0.4-1,0.2-1.5c-7.4-20.4-17.2-46.1-19.3-51c-0.2-0.6-0.5-1.1-0.8-1.6
	c-3.6-25.7-20.1-78.2-22.7-87.5c-3.4-12.2-15.1-23.4-24.6-20.8c-9.5,2.6-16.4,15.6-15.8,27.6c0.4,7.9,20.8,44.1,38.3,69.4
	c3.7,5.3,6,11.4,7.1,17.8c0.8,4.4,2,8.8,3.4,12c2.1,4.8,14.2,23.1,25.1,38.6c0.3,0.4,0.8,0.7,1.4,0.7
	C336.7,839,339.4,837.9,341.4,835.5z"/>
<path class="st3" d="M269.7,660.8c1.5-4.3,2-8.8,1.3-13.3c-1.5-10.4-4.1-30.1-3.8-38.4c0.1-4.5,3.8-8,8.2-8h4.4
	c1.7,3.9,5.2,6.8,10.7,6.8c5.5,0,9-3,10.6-6.8h4.1c-4.5,9.5-2.9,22.1,4.8,29.4c-1.4,5-2.6,10.1-3.5,14.2c-1.2,5.6-0.7,11.3,1.5,16.6
	c3.8,9,6.7,23.5,5.9,29.2c-30.9,8.8-52.3-6.8-52.3-6.8L269.7,660.8z"/>
<polygon class="st4" points="295.2,603.2 281.9,601.8 286.1,587.2 294.7,588.2 "/>
<path class="st2" d="M294.7,588.2l-8.6-1.1l-1.3,4.6c1.9,2.2,4.4,6.9,7.6,6.9c1,0,1.9-0.3,2.7-0.8L294.7,588.2z"/>
<path class="st4" d="M295,595.3c-2.9,0-6.1-1.5-10.5-5.3c-2.5-2.2-4.4-6-4.4-8.6v-14.3h22c0,0,1.6,7.6,0,15.1
	C301,587.9,297.3,595.3,295,595.3z"/>
<path class="st4" d="M283.9,578.7c0,2.8-1.3,5-3,5c-1.6,0-3.5-3.6-3.5-6.4s1.8-3.6,3.5-3.6S283.9,575.9,283.9,578.7z"/>
<path class="st7" d="M277.5,568.9c0-4.5,3.6-8.1,8.1-8.1l7.4,0c2.1,0,4.2-0.6,6-1.6c2.6-1.5,5.9-1,7.7,1.4c1.9,2.6,2.8,6.1-2.1,9.4
	c-2.4,1.6-6-0.2-8.4,0.6c-0.1,0-0.3,0-0.4,0h-6.5c-2.3,0-4,1.9-4.1,4.1c0,1.4-1.2,2.6-2.7,2.6h-0.3l-1-3.4l-3.6,4.9L277.5,568.9
	L277.5,568.9z"/>
<path class="st4" d="M349.7,584.6c0,0,1.5,7.6-0.6,8.8c-2.2,1.2-3.8,1.7-5.8-1.4c-1.9-3.1-3.1-8.2-3.2-11.4
	c-0.1-3.2,2.1-8.7,2.7-9.1c2.2-1.6,1.8,4.3,1.7,7.1c-0.1,2.8,0.1,6.1,1.5,5.7c1.4-0.3,1.1-5.8,2.6-6.7
	C350,576.7,349.7,584.6,349.7,584.6z"/>
<path class="st4" d="M382.5,636.2c0,0-7.6-1.2-8.8,1s-1.5,3.9,1.6,5.7c3.1,1.8,8.3,2.8,11.5,2.7c3.2,0,8.6-2.4,9-3
	c1.5-2.3-4.3-1.6-7.2-1.4c-2.8,0.2-6.1,0.1-5.8-1.3c0.3-1.4,5.8-1.4,6.6-2.8C390.4,635.6,382.5,636.2,382.5,636.2z"/>
<path class="st7" d="M300.5,566.9c-0.7,3.3,0.4,5-10.3,10.1c-10.7,5.1-14.1,2.9-17.4,8.4c0,0,1.5-9.1,7.4-12.2
	c5.9-3.1,16.1-5.1,19.4-12.4C299.6,560.9,301,564.7,300.5,566.9z"/>
<path class="st4" d="M277.4,610c0,0,0,0.2,0,0.2c0,0.1,0,0.1,0.1,0.2c0,0.1,0.1,0.2,0.1,0.4c0.2,0.6,0.5,1.5,1.1,2.7
	c0.6,1.2,1.4,2.6,2.5,4.2c1.1,1.6,2.6,3.2,4.4,4.9c0.9,0.8,1.9,1.6,2.9,2.5c1.1,0.8,2.2,1.6,3.4,2.3c1.2,0.8,2.5,1.5,3.9,2.2
	c0.7,0.3,1.4,0.7,2.1,1c0.7,0.4,1.4,0.7,2.2,1c0.7,0.3,1.5,0.6,2.2,0.9c0.8,0.3,1.6,0.6,2.3,0.8c1.6,0.6,3.2,1.1,4.8,1.6
	c1.6,0.5,3.3,0.9,5,1.3c1.7,0.4,3.4,0.7,5.2,1.1c1.7,0.3,3.5,0.6,5.2,0.9c1.7,0.3,3.5,0.4,5.2,0.7c1.7,0.2,3.5,0.3,5.2,0.5
	c0.9,0.1,1.7,0.1,2.6,0.2c0.9,0,1.7,0.1,2.5,0.1c1.7,0.1,3.3,0.2,5,0.2c1.6,0,3.2,0.1,4.8,0.1c3.1,0.1,6,0,8.7-0.1
	c2.7-0.1,5.2-0.2,7.4-0.3c2.2-0.1,4.1-0.2,5.7-0.3c3.2-0.2,5-0.3,5-0.3l0,0c0.7,0,1.3,0.5,1.4,1.2c0,0.7-0.4,1.3-1.1,1.4
	c0,0-1.8,0.3-5,0.8c-1.6,0.2-3.5,0.6-5.7,0.8c-2.2,0.3-4.7,0.6-7.4,0.9c-2.7,0.2-5.7,0.6-8.9,0.7c-1.6,0.1-3.2,0.2-4.9,0.3
	c-1.7,0.1-3.4,0.1-5.1,0.1c-0.9,0-1.7,0-2.6,0c-0.9,0-1.8,0-2.7,0c-1.8-0.1-3.6,0-5.4-0.2c-1.8-0.1-3.7-0.2-5.5-0.4
	c-1.8-0.2-3.7-0.4-5.6-0.6c-1.9-0.3-3.7-0.5-5.6-0.8c-1.8-0.4-3.7-0.7-5.5-1.2c-1.8-0.5-3.6-0.9-5.4-1.4c-0.9-0.3-1.8-0.5-2.6-0.8
	c-0.9-0.3-1.7-0.6-2.6-0.9c-0.9-0.3-1.7-0.6-2.5-1c-0.8-0.4-1.6-0.7-2.4-1.1c-1.6-0.8-3.1-1.5-4.6-2.4c-1.5-0.8-2.8-1.8-4.2-2.7
	c-1.3-1-2.5-1.9-3.7-2.9c-2.3-2-4.2-4-5.7-6.1c-1.5-2-2.6-3.9-3.5-5.6c-0.8-1.7-1.3-3.1-1.6-4.1c-0.3-1-0.4-1.9-0.4-1.8
	c-0.4-2.5,1.3-4.8,3.7-5.2C274.7,605.8,277,607.5,277.4,610z"/>
<path class="st7" d="M298.5,567.5c0,0,0.4,11,10,16.3c0,0-4.2-8.3-3.9-13.7C304.8,564.6,297.9,563.7,298.5,567.5z"/>
<path class="st7" d="M193,843.9c-0.4-0.9,0-1.9,0.8-2.4c0.7-0.4,2.5-1.5,3.9-2.4c0.6-0.4,1.3,0,1.4,0.7c0.9,7.9,4.5,15,11.1,18.4
	c1.7,2.3,2,6.3,1.1,7.5c-0.2,0.3-3.4-0.8-6-3.8C193.7,848.6,193,843.9,193,843.9z"/>
<path class="st4" d="M901.5,802.9c-0.5-0.1-0.9-0.2-1.3-0.3c-1.1-0.2-2.5-0.2-3.7-0.1c-2.1,0.2-4.2-0.2-6-1.1l-7.7-3.8
	c-3.3-1.6-6.8,1.7-5.3,5.1l0,0c0.1,0.3,0.4,0.5,0.6,0.6l9.1,4.1c2.7,1.2,5,3,6.8,5.2l2.6,3.2C902.1,812.4,901.3,806.1,901.5,802.9z"
	/>
<path class="st7" d="M898.2,829.6c0.4-4.4-1.6-11.7-2.6-14.1c2.4-4.3,2.4-9,1-13.2c1.2-0.1,2.6-0.1,3.6,0.1c1.5,0.3,4.9,0.8,6.2,1.1
	c1,0.2,1.7,1.1,1.6,2.1c0,0-4.4,31.7-5.3,31.1C901.1,835.6,897.9,833.3,898.2,829.6z"/>
<path class="st14" d="M732.8,771.6c-2.5,9.7-19.7,86.2-16.3,86.3c3,0.1,34.4-71.3,36.9-81.1c2.5-9.7-0.2-18.8-5.8-20.2
	C741.9,755.1,735.3,761.9,732.8,771.6z"/>
<path class="st14" d="M770.7,693.9c-8.3,10.1-45.4,76.5-37.6,83s59.3-48.5,67.7-58.7c8.3-10.1,7.1-24.5-0.8-31
	C792.1,680.8,779,683.8,770.7,693.9z"/>
<path class="st4" d="M720.8,868.5c0-0.5,0.1-0.9,0.1-1.3c0.1-1.1-0.2-2.5-0.4-3.7c-0.5-2-0.4-4.1,0.2-6.1l2.6-8.2
	c1.1-3.5-2.7-6.4-5.8-4.5l0,0c-0.3,0.2-0.5,0.4-0.5,0.7l-2.7,9.6c-0.8,2.8-2.2,5.4-4.2,7.5l-2.8,3
	C711.6,870.4,717.7,868.7,720.8,868.5z"/>
<path class="st7" d="M694,869c4.4-0.3,11.3-3.3,13.6-4.6c4.6,1.7,9.3,1.1,13.2-0.9c0.3,1.2,0.5,2.5,0.4,3.6
	c-0.1,1.5-0.1,4.9-0.2,6.3c0,1-0.8,1.8-1.8,1.9c0,0-32,0.3-31.5-0.7C688.5,872.8,690.3,869.3,694,869z"/>
<path class="st7" d="M753.4,776.8c-1.5,6-20.3,52.6-30.4,74.3c-3-1.2-4.7-1.1-7.8-2c4-20.4,11-65.9,13.4-75.7
	c1-13.7,34.5-70,42.2-79.4c8.3-10.1,21.4-13.1,29.3-6.7c7.9,6.5,9.1,20.9,0.8,31C795.4,724.8,754.4,772.7,753.4,776.8z"/>
<path class="st7" d="M793.7,777.2C793.7,777.2,793.7,777.2,793.7,777.2C793.7,777.1,793.7,777.1,793.7,777.2c-0.4-0.7-0.6-1.3-0.8-2
	c-5.5-16.4-4-76.1-2.2-88.2c0.5-3.2,1.4-6.2,2.7-8.9l17.7,9.6c4.4,5,9.7,9.5,15.7,13.1c0.9,0.5-0.3-1.8,0.6-1.3
	c-2.5,15.7-5.9,46.8-7.1,62.4c-0.3,3.5,1.7,6.8,5,8.2c16.5,6.9,45.8,20.4,62.2,29.2l-0.6,9.3c-23.9-5-71.6-19.2-78.9-21.3
	C801.2,785.3,795.9,781.3,793.7,777.2z"/>
<path class="st2" d="M774.3,626.6c0,0,0,0.1,0,0.3c0,0.1,0,0.3,0,0.4c0,0.2,0,0.3,0,0.5c-0.1,0.8-0.2,1.9-0.4,3.3
	c-0.2,1.4-0.6,3.1-1.1,5c-0.5,1.9-1.2,4-2.1,6.3c-0.9,2.2-2.1,4.6-3.5,7c-1.5,2.4-3.2,4.8-5.2,7c-0.5,0.6-1.1,1.1-1.6,1.7l-0.8,0.8
	l-0.9,0.8c-0.6,0.5-1.2,1-1.8,1.5c-0.6,0.5-1.3,0.9-1.9,1.4c-0.6,0.5-1.3,0.9-2,1.3c-0.7,0.4-1.3,0.9-2,1.3
	c-1.4,0.7-2.8,1.5-4.3,2.1l-2.2,0.9c-0.7,0.3-1.5,0.5-2.2,0.8c-0.8,0.2-1.5,0.5-2.2,0.7c-0.8,0.2-1.5,0.4-2.3,0.6
	c-1.5,0.4-3,0.6-4.5,0.9c-1.5,0.3-2.9,0.4-4.4,0.5c-0.7,0.1-1.4,0.2-2.1,0.2c-0.7,0-1.4,0-2.1,0.1c-1.4,0-2.7,0.1-4,0
	c-1.3,0-2.6-0.1-3.8-0.1c-1.2-0.1-2.4-0.2-3.5-0.3c-2.3-0.2-4.3-0.5-6.1-0.8c-0.9-0.1-1.8-0.3-2.5-0.4c-0.8-0.2-1.5-0.3-2.1-0.4
	c-2.6-0.5-4-0.8-4-0.8c-0.7-0.2-1.2-0.9-1-1.6c0.1-0.7,0.8-1.1,1.5-1.1l0.1,0c0,0,1.5,0.2,4,0.4c0.6,0.1,1.3,0.2,2.1,0.2
	c0.8,0.1,1.6,0.1,2.5,0.2c1.8,0.1,3.8,0.3,6,0.2c1.1,0,2.2,0,3.4,0c1.2-0.1,2.4-0.1,3.6-0.2c1.2,0,2.5-0.2,3.8-0.3
	c0.6-0.1,1.3-0.1,1.9-0.2c0.7-0.1,1.3-0.2,2-0.3c1.3-0.2,2.7-0.4,4-0.8c1.3-0.3,2.7-0.6,4-1.1c0.7-0.2,1.3-0.4,2-0.6
	c0.7-0.2,1.3-0.5,1.9-0.8c0.6-0.3,1.3-0.5,1.9-0.8l1.8-0.9c1.3-0.6,2.4-1.4,3.5-2.1c0.6-0.4,1.1-0.8,1.6-1.2
	c0.5-0.4,1.1-0.8,1.6-1.2c0.5-0.4,1-0.9,1.5-1.3c0.5-0.5,0.9-0.9,1.4-1.4l0.7-0.7l0.6-0.7c0.4-0.5,0.8-1,1.2-1.4c1.6-2,2.8-4,4-6.1
	c1.1-2.1,1.9-4.1,2.6-6c0.6-1.9,1.1-3.7,1.5-5.3c0.3-1.6,0.6-3,0.7-4.2c0.1-1.2,0.2-2.1,0.2-2.7c0-0.1,0-0.3,0-0.4
	c0-0.1,0-0.2,0-0.2c0-0.2,0-0.2,0-0.2l0-0.1c0-2.6,2.1-4.7,4.7-4.7c2.6,0,4.7,2.1,4.7,4.7C774.3,626.4,774.3,626.5,774.3,626.6z"/>
<path class="st11" d="M750,640.3c1.6-3.5,8-17.2,8.8-20.5l0-0.2c0.1-0.3,0.1-0.5,0.2-0.8c1.7-5,7.1-7.7,12.1-6c5,1.7,7.7,7.1,6,12.1
	c-1.6,4.7-3.2,8.6-5.1,12.7c-1.3,2.7-2.7,5.4-4.2,8.1C766.3,644.4,750,640.4,750,640.3z"/>
<path class="st4" d="M771.1,705.5c7.9,6.5,40.8,5.2,53.1,4.5c3.1-0.2,5.4-3,4.9-6c-1.3-7.8-6.7-21.1-9.9-35
	c-4.7-20-9.1-42.1-11.5-54.1c-1-4.9-5.7-8.2-10.7-7.4l-30,5c-4.6,0.8-7.9,4.9-7.5,9.6c0.8,9.7,2.2,26.5,3.5,42.9
	C764.3,681.6,762.7,698.5,771.1,705.5z"/>
<path class="st11" d="M766.7,612.4l4.9-0.8c2.3,3.6,6.4,6.1,12,5.2c5.6-0.9,8.7-4.6,9.7-8.8l4.4-0.7c4.5-0.8,8.9,2.2,9.7,6.8
	c2.3,11.8,6.8,34.5,11.6,54.9c3.3,14.1,8.7,27,9.9,34.9c0.5,3.1-1.8,5.9-5,6.1c-12.3,0.7-45.1,2-53-4.5c-8.4-7-6.8-23.8-8.1-40.5
	c-1.3-16.6-2.7-33.6-3.5-43.2C759.1,617.2,762.2,613.1,766.7,612.4z"/>
<path class="st7" d="M782.6,596l0.6-0.2c4.3-1.2,6.7-5.7,5.5-10l-3.3-11.4l-8.3,2.4L782.6,596z"/>
<polygon class="st4" points="775.9,612.4 790.4,611.4 790.9,609.3 782.4,594.1 772.3,598.3 "/>
<path class="st2" d="M772.3,598.3l10-4.3l3.4,6.1c-1.6,3.3-3.5,7-7.3,8c-1.2,0.3-2.6,0.2-3.7-0.1L772.3,598.3z"/>
<path class="st4" d="M777.4,604.6L777.4,604.6c7-2,11.1-9.3,9.1-16.4l-4.1-14.2l-21.8,6.3c0,0,3.2,11.1,6.9,18.1
	C770.2,603.6,773.8,605.6,777.4,604.6z"/>
<rect x="781.2" y="579.7" transform="matrix(0.9612 -0.2758 0.2758 0.9612 -129.7706 238.5622)" class="st15" width="4.3" height="1.9"/>
<path class="st4" d="M782,586.6c0.8,2.8,2.8,4.6,4.4,4.2c1.6-0.5,2.4-4.6,1.6-7.4c-0.8-2.8-2.8-3.1-4.5-2.6
	C781.9,581.2,781.2,583.8,782,586.6z"/>
<path class="st7" d="M760.7,586.5c-1-1.6-1.7-3.4-1.9-5.3c0,0-1.9-6.3,0.2-8.2c1.9-1.7,6.2-1.4,8.8-1.6c1.9-0.1,7.4-2.1,7.4-2.1
	c4.4-1.3,9,1.3,10.3,5.7l0.5,1.7l-2.7,4.4l-0.1,3.6l-0.3,0.1c-1.4,0.4-2.9-0.4-3.4-1.7c-0.8-2.2-2.9-3.7-5.2-3l-6.5,1.9
	c-4,1.1-5.4,3.9-4.6,6.8l0.9,2.5L760.7,586.5z"/>
<path class="st7" d="M706.3,620l-1.3-3.4c2.3-3.5,3-7.9,1.7-12.1c-2.4-7.4-11.1-11.6-18.3-8.9c-7.4,2.8-11,11-8.2,18.3
	c1.7,4.4,5.5,7.5,9.8,8.5l1.3,3.4l-37.1,14.5c-3.2,1.3-4.8,4.9-3.6,8.1l14.3,36.7l-2,0.8c-3.5-2.3-7.9-3-12.1-1.7
	c-7.4,2.4-11.6,11.1-8.9,18.3c2.8,7.4,11,11,18.3,8.2c4.4-1.7,7.5-5.5,8.5-9.8l2-0.8l14.3,36.7c1.3,3.2,4.9,4.8,8.1,3.6l88.4-34.6
	c3.2-1.3,4.8-4.9,3.6-8.1l-34.6-88.4c-1.3-3.2-4.9-4.8-8.1-3.6L706.3,620z"/>
<path class="st4" d="M811.4,616c1.3,23.7-12,51.9-40,58.8c-22.2,5.5-46.2-0.6-67.3-9.7c-1.4-0.6-2-2.2-1.4-3.6
	c0.5-1.2,1.8-1.9,3.1-1.6l0,0c29.4,6.2,66.9,10.3,80.8-16.5c7-13.2,5.8-29.1,5.8-26.8C792.2,604.3,810.8,603.7,811.4,616z"/>
<path class="st11" d="M789.5,634.9c2.2-10.1,2.5-18.2,2.5-18.4l0,0.3l1.6-6.4c0,0,3.1-5.1,11.4-3.1c6.7,1.6,6.6,9.2,6.6,9.2
	c0,1.1,2.4,8.7-4.1,25.2C807.6,641.6,789.2,636.3,789.5,634.9z"/>
<path class="st4" d="M707.4,660.4c-1.8-2.2-2.3-9.7-3.4-9.7c-0.7,0-0.9,2.6-0.9,4.1c0,0.2-0.1,0.3-0.3,0.4c-0.2,0.1-0.3,0-0.5-0.1
	c-2.1-1.8-8-7-8.6-6.5c-0.6,0.5,2.5,4.3,3.6,5.6c0,0,0,0.1,0,0.1s-0.1,0.1-0.1,0c-1.7-0.8-7.1-3.5-7.2-2.4c-0.1,1.1,4.6,4.1,6.4,5.2
	c0,0,0.1,0.1,0,0.1c0,0-0.1,0.1-0.1,0.1c-2.1-0.6-7.3-2.1-7.5-1.1c-0.1,1,5,3.2,6.8,3.9c0,0,0.1,0.1,0.1,0.1c0,0.1-0.1,0.1-0.1,0.1
	c-1.8-0.1-6.5-0.4-5.8,0.3c0.9,0.9,12.2,4.6,14.7,4.6S707.4,660.4,707.4,660.4z"/>
<rect x="294.7" y="471.4" class="st7" width="480.6" height="4.5"/>
<rect x="489.3" y="556.1" class="st11" width="96.9" height="22.7"/>
<rect x="489.3" y="590.2" class="st13" width="96.9" height="22.7"/>
<rect x="489.3" y="624.3" class="st11" width="96.9" height="22.7"/>
<rect x="489.3" y="658.4" class="st13" width="96.9" height="22.7"/>
<rect x="325.8" y="497.1" class="st13" width="425.6" height="25"/>
<path class="st11" d="M521.5,509.1H391.2c-6.6,0-11.9-5.3-11.9-11.9v-30.1c0-6.6,5.3-11.9,11.9-11.9h130.3c6.6,0,11.9,5.3,11.9,11.9
	v30.1C533.4,503.8,528,509.1,521.5,509.1z"/>
<rect x="495.5" y="502.8" transform="matrix(0.7071 -0.7071 0.7071 0.7071 -212.9477 503.824)" class="st11" width="12.4" height="12.4"/>
<rect x="397.5" y="468.8" class="st0" width="114.2" height="4.2"/>
<rect x="397.5" y="480" class="st0" width="114.2" height="4.2"/>
<rect x="397.5" y="491.2" class="st0" width="114.2" height="4.2"/>
<rect x="494.7" y="673.4" class="st11" width="12.4" height="12.4"/>
<circle class="st11" cx="468" cy="713.8" r="48.6"/>
<path class="st0" d="M453.3,713.9c0,2.2-1.8,4-4,4c-2.2,0-4-1.8-4-4c0-2.2,1.8-4,4-4C451.6,709.9,453.3,711.7,453.3,713.9z"/>
<path class="st0" d="M470.7,713.9c0,2.2-1.8,4-4,4c-2.2,0-4-1.8-4-4c0-2.2,1.8-4,4-4S470.7,711.7,470.7,713.9z"/>
<path class="st0" d="M488,713.9c0,2.2-1.8,4-4,4c-2.2,0-4-1.8-4-4c0-2.2,1.8-4,4-4C486.2,709.9,488,711.7,488,713.9z"/>
</svg>
