<?xml version="1.0" encoding="utf-8"?>
<!-- Generator: Adobe Illustrator 24.3.0, SVG Export Plug-In . SVG Version: 6.00 Build 0)  -->
<svg version="1.1" id="Layer_1" xmlns="http://www.w3.org/2000/svg" xmlns:xlink="http://www.w3.org/1999/xlink" x="0px" y="0px"
	 viewBox="0 0 200 200" style="enable-background:new 0 0 200 200;" xml:space="preserve">
<style type="text/css">
	.st0{fill:none;}
	.st1{fill:#F8F8F8;}
	.st2{fill:#DCA727;}
</style>
<g transform="translate(15742 20679)">
	<rect x="-15738.1" y="-20664.1" class="st0" width="192.2" height="202.1"/>
	<g transform="translate(-15742 -20679)">
		<g transform="translate(3.143 3.143)">
			<path class="st1" d="M189.7,9.4v9.3H3.8V9.4c0-5.1,4.2-9.3,9.3-9.3h167.3C185.6,0.1,189.7,4.3,189.7,9.4L189.7,9.4z"/>
			<ellipse class="st1" cx="11.7" cy="9.9" rx="4.1" ry="1.7"/>
			<ellipse class="st1" cx="22.7" cy="9.9" rx="3.5" ry="1.7"/>
			<circle class="st1" cx="31.5" cy="9.9" r="1.7"/>
			<path class="st1" d="M16.2,31.1h18.6v9.3H16.2V31.1z"/>
			<path class="st1" d="M96.8,148.8c-27.4-0.1-49.5-22.4-49.3-49.8c0.1-27.2,22.1-49.2,49.3-49.3c-27.4,20.5-32.9,59.4-12.4,86.7
				C87.9,141.1,92.1,145.3,96.8,148.8z"/>
			<path class="st1" d="M146.3,99.3c0,27.4-22.2,49.6-49.6,49.6c27.4-20.5,32.9-59.4,12.4-86.7c-3.5-4.7-7.7-8.9-12.4-12.4
				C124.2,49.7,146.3,71.9,146.3,99.3C146.3,99.3,146.3,99.3,146.3,99.3z"/>
		</g>
		<g transform="translate(0 0)">
			<path class="st2" d="M183.6,0.2H16.3C9.4,0.2,3.9,5.7,3.9,12.6v167.3c0,6.8,5.6,12.4,12.4,12.4h167.3c6.8,0,12.4-5.6,12.4-12.4
				V12.6C196,5.7,190.4,0.2,183.6,0.2z M189.8,179.8c0,3.4-2.8,6.2-6.2,6.2H16.3c-3.4,0-6.2-2.8-6.2-6.2V24.9h179.7V179.8z
				 M189.8,18.8H10.1v-6.2c0-3.4,2.8-6.2,6.2-6.2h167.3c3.4,0,6.2,2.8,6.2,6.2L189.8,18.8z"/>
			<path class="st2" d="M141.2,69.8c-0.1-0.2-0.3-0.4-0.5-0.6c-18.3-22.6-51.4-26-74-7.7c-2.8,2.3-5.4,4.9-7.7,7.7
				c-0.2,0.2-0.3,0.4-0.5,0.6c-15.1,19.1-15.1,46.1,0,65.2c0.1,0.2,0.3,0.4,0.5,0.6c10,12.3,25,19.5,40.8,19.5h0
				c8,0,15.8-1.8,23-5.3c6.9-3.4,13-8.2,17.9-14.2c0.2-0.2,0.3-0.4,0.5-0.6C156.4,115.9,156.4,88.9,141.2,69.8z M90.8,56.8
				c-6.5,6.7-11.6,14.7-14.8,23.4c-4-2.4-7.6-5.4-10.6-8.8C72,63.9,80.9,58.8,90.8,56.8z M61.4,76.4c3.7,3.9,7.9,7.3,12.6,10
				c-1.1,4.2-1.7,8.6-1.9,13H53.6C54.1,91.1,56.8,83.2,61.4,76.4z M61.4,128.4c-4.6-6.8-7.3-14.7-7.9-22.9h18.6
				c0.2,4.4,0.9,8.7,1.9,13C69.4,121.1,65.1,124.5,61.4,128.4L61.4,128.4z M65.3,133.4c3.1-3.5,6.7-6.4,10.6-8.8
				c3.2,8.8,8.3,16.8,14.8,23.4C80.9,146,72,140.8,65.3,133.4L65.3,133.4z M96.8,145.2c-6.9-6.5-12.2-14.6-15.3-23.6
				c4.9-2.1,10-3.3,15.3-3.7V145.2z M96.8,111.8c-5.9,0.3-11.6,1.7-17.1,3.9c-0.8-3.3-1.3-6.8-1.4-10.2h18.5V111.8z M96.8,99.3H78.3
				c0.2-3.4,0.7-6.8,1.4-10.2c5.4,2.2,11.2,3.6,17.1,3.9L96.8,99.3z M96.8,86.8c-5.3-0.3-10.5-1.6-15.3-3.7c3.2-9,8.4-17,15.3-23.6
				V86.8z M138.4,76.4c4.6,6.8,7.3,14.7,7.9,22.9h-18.6c-0.2-4.4-0.9-8.7-1.9-13C130.5,83.7,134.7,80.3,138.4,76.4z M134.5,71.4
				c-3.1,3.5-6.7,6.4-10.6,8.8c-3.2-8.8-8.3-16.8-14.8-23.4C118.9,58.8,127.9,63.9,134.5,71.4L134.5,71.4z M103,59.6
				c6.9,6.5,12.2,14.6,15.3,23.6c-4.9,2.1-10,3.3-15.3,3.7V59.6z M103,93c5.9-0.3,11.6-1.7,17.1-3.9c0.8,3.3,1.3,6.8,1.4,10.2H103
				V93z M103,105.5h18.5c-0.2,3.4-0.7,6.8-1.4,10.2c-5.4-2.2-11.2-3.6-17.1-3.9V105.5z M103,145.2V118c5.3,0.3,10.5,1.6,15.3,3.7
				C115.2,130.6,109.9,138.7,103,145.2L103,145.2z M109.1,148c6.5-6.7,11.6-14.7,14.8-23.4c4,2.4,7.6,5.4,10.6,8.8
				C127.9,140.8,118.9,146,109.1,148L109.1,148z M138.4,128.4c-3.7-3.9-7.9-7.3-12.6-10c1.1-4.2,1.7-8.6,1.9-13h18.6
				C145.7,113.7,143,121.6,138.4,128.4L138.4,128.4z"/>
			<ellipse class="st2" cx="14.8" cy="13" rx="4.1" ry="1.7"/>
			<ellipse class="st2" cx="25.9" cy="13" rx="3.5" ry="1.7"/>
			<circle class="st2" cx="34.6" cy="13" r="1.7"/>
			<path class="st2" d="M38,31.1H19.4c-1.7,0-3.1,1.4-3.1,3.1v9.3c0,1.7,1.4,3.1,3.1,3.1H38c1.7,0,3.1-1.4,3.1-3.1v-9.3
				C41.1,32.5,39.7,31.1,38,31.1z M34.9,40.4H22.5v-3.1h12.4L34.9,40.4z"/>
			<path class="st2" d="M47.3,37.3h31c1.7,0,3.1-1.4,3-3.2c0-1.7-1.4-3-3-3h-31c-1.7,0-3.1,1.3-3.2,3c0,1.7,1.3,3.1,3,3.2
				C47.2,37.3,47.2,37.3,47.3,37.3z"/>
			<path class="st2" d="M56.5,46.6c1.7,0,3.1-1.4,3-3.2c0-1.7-1.4-3-3-3h-9.3c-1.7,0-3.1,1.4-3,3.2c0,1.7,1.4,3,3,3H56.5z"/>
			<path class="st2" d="M180.5,173.7h-37.2c-1.7,0-3.1,1.3-3.2,3c0,1.7,1.3,3.1,3,3.2c0,0,0.1,0,0.1,0h37.2c1.7,0,3.1-1.3,3.2-3
				s-1.3-3.1-3-3.2C180.5,173.7,180.5,173.7,180.5,173.7z"/>
			<path class="st2" d="M180.5,164.4H165c-1.7,0-3.1,1.4-3,3.2c0,1.7,1.4,3,3,3h15.5c1.7,0,3.1-1.3,3.2-3s-1.3-3.1-3-3.2
				C180.5,164.4,180.5,164.4,180.5,164.4L180.5,164.4z"/>
			<path class="st2" d="M133.6,173.7h-2.7c-1.7,0-3.1,1.4-3,3.2c0,1.7,1.4,3,3,3h2.7c1.7,0,3.1-1.3,3.2-3c0-1.7-1.3-3.1-3-3.2
				C133.7,173.7,133.6,173.7,133.6,173.7z"/>
		</g>
	</g>
</g>
</svg>
