<svg xmlns="http://www.w3.org/2000/svg" width="250" height="250" viewBox="0 0 250 250"><g transform="translate(1252 685)"><rect width="250" height="250" transform="translate(-1252 -685)" fill="none"/><g transform="translate(-1241.355 -686)"><g transform="translate(9.032 5.032)"><path d="M159.226,10.065V26.194H6V10.065A8.089,8.089,0,0,1,14.065,2h137.1A8.089,8.089,0,0,1,159.226,10.065Z" transform="translate(-6 -2)" fill="#eeece7"/><path d="M126.968,78.194V54H6V78.194a8.089,8.089,0,0,0,8.065,8.065H135.032A8.089,8.089,0,0,1,126.968,78.194Zm-44.355,0a8.065,8.065,0,1,1,8.065-8.065A8.064,8.064,0,0,1,82.613,78.194Z" transform="translate(-6 155.677)" fill="#eeece7"/><path d="M89.387,25,85.355,41.129H45.032L41,25Z" transform="translate(100.129 67.742)" fill="#eeece7"/><path d="M89.387,25,85.355,41.129H45.032L41,25Z" transform="translate(100.129 67.742)" fill="#eeece7"/></g><path d="M56.29,4H24.032a4.032,4.032,0,0,0,0,8.065H56.29A4.032,4.032,0,1,0,56.29,4Z" transform="translate(45.484 9.097)" fill="#ba5b19"/><path d="M39.065,4H35.032a4.032,4.032,0,0,0,0,8.065h4.032a4.032,4.032,0,0,0,0-8.065Z" transform="translate(78.839 9.097)" fill="#ba5b19"/><path d="M46.194,67.1a12.1,12.1,0,1,0-12.1,12.1A12.1,12.1,0,0,0,46.194,67.1ZM34.1,71.129A4.032,4.032,0,1,1,38.129,67.1,4.032,4.032,0,0,1,34.1,71.129Z" transform="translate(51.548 163.742)" fill="#ba5b19"/><path d="M210.645,93.742H166.29V13.1A12.1,12.1,0,0,0,154.194,1H17.1A12.1,12.1,0,0,0,5,13.1V238.9A12.1,12.1,0,0,0,17.1,251H210.645a12.1,12.1,0,0,0,12.1-12.1V105.839A12.1,12.1,0,0,0,210.645,93.742Zm-17.262,8.065-2.016,8.065H157.343l-2.016-8.065Zm-55.319-8.065a12.1,12.1,0,0,0-12.1,12.1V210.677H13.065V33.258H158.226V93.742ZM13.065,13.1A4.032,4.032,0,0,1,17.1,9.065h137.1a4.032,4.032,0,0,1,4.032,4.032v12.1H13.065ZM17.1,242.935a4.032,4.032,0,0,1-4.032-4.032V218.742h112.9V238.9a11.96,11.96,0,0,0,.742,4.032ZM214.677,238.9a4.032,4.032,0,0,1-4.032,4.032H138.064a4.032,4.032,0,0,1-4.032-4.032V105.839a4.032,4.032,0,0,1,4.032-4.032h8.948l3.27,13.077a4.032,4.032,0,0,0,3.911,3.052h40.323a4.032,4.032,0,0,0,3.911-3.052l3.27-13.077h8.948a4.032,4.032,0,0,1,4.032,4.032Z" transform="translate(0)" fill="#ba5b19"/></g></g></svg>