<?xml version="1.0" encoding="utf-8"?>
<!-- Generator: Adobe Illustrator 24.3.0, SVG Export Plug-In . SVG Version: 6.00 Build 0)  -->
<svg version="1.1" id="Layer_1" xmlns="http://www.w3.org/2000/svg" xmlns:xlink="http://www.w3.org/1999/xlink" x="0px" y="0px"
	 viewBox="0 0 200 200" style="enable-background:new 0 0 200 200;" xml:space="preserve">
<style type="text/css">
	.st0{fill:#F8F8F8;}
	.st1{fill:#EEECE7;}
	.st2{fill:#DCA727;}
</style>
<path class="st0" d="M100,144.2c-17.3,0-31.3-14-31.3-31.3s14-31.3,31.3-31.3s31.3,14,31.3,31.3S117.3,144.2,100,144.2L100,144.2z
	 M38.9,151.4H22.9V74.3h16.1V151.4z M190,61.4H10c-3.5,0-6.4,2.9-6.4,6.4v90c0,3.5,2.9,6.4,6.4,6.4h180c3.5,0,6.4-2.9,6.4-6.4v-90
	C196.4,64.3,193.5,61.4,190,61.4z M186.8,93.6h-32.1V74.3h32.1L186.8,93.6z"/>
<path class="st1" d="M100,71.1c-23.1,0-41.8,18.7-41.8,41.8s18.7,41.8,41.8,41.8s41.8-18.7,41.8-41.8S123.1,71.1,100,71.1
	C100,71.1,100,71.1,100,71.1z M100,144.2c-17.3,0-31.3-14-31.3-31.3c0-17.3,14-31.3,31.3-31.3s31.3,14,31.3,31.3
	S117.3,144.2,100,144.2C100,144.2,100,144.2,100,144.2z"/>
<path class="st1" d="M19.6,48.6h22.5v12.9H19.6V48.6z"/>
<g transform="translate(0 0)">
	<path class="st2" d="M100,67.9c-24.9,0-45,20.1-45,45s20.1,45,45,45s45-20.1,45-45S124.9,67.9,100,67.9z M100,151.4
		c-21.3,0-38.6-17.3-38.6-38.6S78.7,74.3,100,74.3s38.6,17.3,38.6,38.6c0,0,0,0,0,0C138.6,134.2,121.3,151.4,100,151.4L100,151.4z"
		/>
	<path class="st2" d="M100,78.3c-19.1,0-34.6,15.5-34.6,34.6s15.5,34.6,34.6,34.6s34.6-15.5,34.6-34.6l0,0
		C134.6,93.8,119.1,78.3,100,78.3z M100,141c-15.5,0-28.1-12.6-28.1-28.1S84.5,84.7,100,84.7s28.1,12.6,28.1,28.1S115.5,141,100,141
		L100,141z"/>
	<path class="st2" d="M88.8,93.4c-3.4,2-6.3,4.8-8.2,8.2c-0.9,1.5-0.4,3.5,1.2,4.4c1.5,0.9,3.5,0.4,4.4-1.2l0,0
		c1.4-2.4,3.4-4.5,5.9-5.9c1.6-0.8,2.2-2.8,1.3-4.3c-0.8-1.6-2.8-2.2-4.3-1.3C88.9,93.3,88.8,93.3,88.8,93.4L88.8,93.4z"/>
	<path class="st2" d="M100,90.4c-1.8,0-3.2,1.4-3.2,3.2c0,1.8,1.4,3.2,3.2,3.2c8.9,0,16.1,7.2,16.1,16.1c0,1.8,1.4,3.2,3.2,3.2
		c1.8,0,3.2-1.4,3.2-3.2C122.5,100.4,112.4,90.4,100,90.4z"/>
	<path class="st2" d="M190,58.2h-52.4l-8.9-23.6c-0.5-1.3-1.7-2.1-3-2.1H74.3c-1.3,0-2.5,0.8-3,2.1l-8.9,23.6H45.4v-9.6
		c0-1.8-1.4-3.2-3.2-3.2l0,0h-3.2v-6.4c0-1.8-1.4-3.2-3.2-3.2l0,0h-9.6c-1.8,0-3.2,1.4-3.2,3.2c0,0,0,0,0,0v6.4h-3.2
		c-1.8,0-3.2,1.4-3.2,3.2l0,0v9.6H10c-5.3,0-9.6,4.3-9.6,9.6c0,0,0,0,0,0v90c0,5.3,4.3,9.6,9.6,9.6c0,0,0,0,0,0h180
		c5.3,0,9.6-4.3,9.6-9.6c0,0,0,0,0,0v-90C199.6,62.5,195.3,58.2,190,58.2C190,58.2,190,58.2,190,58.2z M76.5,38.9h47l7.2,19.3H69.3
		L76.5,38.9z M29.3,42.1h3.2v3.2h-3.2V42.1z M22.9,51.8h16.1v6.4H22.9V51.8z M193.2,157.9c0,1.8-1.4,3.2-3.2,3.2c0,0,0,0,0,0H10
		c-1.8,0-3.2-1.4-3.2-3.2v-90c0-1.8,1.4-3.2,3.2-3.2c0,0,0,0,0,0h180c1.8,0,3.2,1.4,3.2,3.2l0,0V157.9z"/>
	<path class="st2" d="M186.8,71.1h-32.1c-1.8,0-3.2,1.4-3.2,3.2v19.3c0,1.8,1.4,3.2,3.2,3.2h32.1c1.8,0,3.2-1.4,3.2-3.2V74.3
		C190,72.5,188.6,71.1,186.8,71.1z M183.6,90.4h-25.7V77.5h25.7L183.6,90.4z"/>
	<path class="st2" d="M38.9,71.1H22.9c-1.8,0-3.2,1.4-3.2,3.2v77.1c0,1.8,1.4,3.2,3.2,3.2h0h16.1c1.8,0,3.2-1.4,3.2-3.2l0,0V74.3
		C42.1,72.5,40.7,71.1,38.9,71.1z M35.7,148.2h-9.6V77.5h9.6L35.7,148.2z"/>
	<path class="st2" d="M173.9,148.2h-25.7c-1.8,0-3.2,1.4-3.2,3.2c0,1.8,1.4,3.2,3.2,3.2h25.7c1.8,0,3.2-1.4,3.2-3.2
		C177.1,149.7,175.7,148.2,173.9,148.2L173.9,148.2L173.9,148.2z"/>
	<path class="st2" d="M186.8,148.2h-3.2c-1.8,0-3.2,1.4-3.2,3.2c0,1.8,1.4,3.2,3.2,3.2l0,0h3.2c1.8,0,3.2-1.4,3.2-3.2
		C190,149.7,188.6,148.2,186.8,148.2z"/>
</g>
</svg>
