<svg xmlns="http://www.w3.org/2000/svg" width="250" height="250" viewBox="0 0 250 250"><g transform="translate(477 1263)"><rect width="250" height="250" transform="translate(-477 -1263)" fill="none"/><g transform="translate(-484 -1271)"><g transform="translate(12.016 12.016)"><path d="M256.968,28.048V40.1H16V28.048A12.051,12.051,0,0,1,28.048,16H244.919a12.051,12.051,0,0,1,12.048,12.048Z" transform="translate(-16 -16)" fill="#eeece7"/><ellipse cx="5" cy="2.5" rx="5" ry="2.5" transform="translate(4.984 9.984)" fill="#eeece7"/><ellipse cx="5" cy="2.5" rx="5" ry="2.5" transform="translate(18.984 9.984)" fill="#eeece7"/><ellipse cx="2" cy="2.5" rx="2" ry="2.5" transform="translate(33.984 9.984)" fill="#eeece7"/><path d="M48,96H72.1v12.048H48Z" transform="translate(-31.936 -55.839)" fill="#eeece7"/><path d="M192.258,272.516a64.258,64.258,0,0,1,0-128.516c-19.584,15.081-32.129,38.264-32.129,64.258S172.674,257.436,192.258,272.516Z" transform="translate(-71.774 -79.742)" fill="#eeece7"/><path d="M320.258,208.258A64.258,64.258,0,0,1,256,272.516c19.584-15.081,32.129-38.264,32.129-64.258S275.584,159.081,256,144A64.258,64.258,0,0,1,320.258,208.258Z" transform="translate(-135.516 -79.742)" fill="#eeece7"/></g><g transform="translate(8 8)"><path d="M240.936,8H24.065A16.086,16.086,0,0,0,8,24.065V240.936A16.086,16.086,0,0,0,24.065,257H240.936A16.086,16.086,0,0,0,257,240.936V24.065A16.086,16.086,0,0,0,240.936,8Zm8.032,232.936a8.043,8.043,0,0,1-8.032,8.032H24.065a8.043,8.043,0,0,1-8.032-8.032V40.129H248.968Zm0-208.839H16.032V24.065a8.043,8.043,0,0,1,8.032-8.032H240.936a8.043,8.043,0,0,1,8.032,8.032Z" transform="translate(-8 -8)" fill="#ba5b19"/><path d="M241.844,161.995a3.942,3.942,0,0,0-.622-.768,68.179,68.179,0,0,0-105.9,0,3.945,3.945,0,0,0-.622.768,68.137,68.137,0,0,0,0,84.56,3.941,3.941,0,0,0,.622.768,68.156,68.156,0,0,0,52.943,25.226h.01a67.772,67.772,0,0,0,29.775-6.848,68.626,68.626,0,0,0,23.168-18.379,3.946,3.946,0,0,0,.622-.768A68.137,68.137,0,0,0,241.844,161.995Zm-65.453-16.782a85.28,85.28,0,0,0-19.2,30.362,60.177,60.177,0,0,1-13.8-11.441A60.273,60.273,0,0,1,176.391,145.212Zm-38.013,25.337a68.311,68.311,0,0,0,16.376,12.912,83.316,83.316,0,0,0-2.52,16.8H128.168A59.915,59.915,0,0,1,138.379,170.549Zm0,67.451a59.916,59.916,0,0,1-10.211-29.709h24.067a83.317,83.317,0,0,0,2.52,16.8A68.313,68.313,0,0,0,138.379,238Zm5.015,6.416a60.176,60.176,0,0,1,13.8-11.441,85.281,85.281,0,0,0,19.2,30.362,60.274,60.274,0,0,1-33-18.921Zm40.864,15.392A77.435,77.435,0,0,1,164.4,229.26a60.079,60.079,0,0,1,19.855-4.769Zm0-43.369a68.212,68.212,0,0,0-22.119,5.05,75.579,75.579,0,0,1-1.867-13.2h23.986Zm0-16.18H160.272a75.579,75.579,0,0,1,1.867-13.2,68.21,68.21,0,0,0,22.119,5.05Zm0-16.2a60.078,60.078,0,0,1-19.855-4.769,77.435,77.435,0,0,1,19.855-30.548Zm53.911-13.509a59.914,59.914,0,0,1,10.211,29.709H224.314a83.316,83.316,0,0,0-2.52-16.8A68.312,68.312,0,0,0,238.17,170.549Zm-5.015-6.416a60.175,60.175,0,0,1-13.8,11.441,85.28,85.28,0,0,0-19.2-30.362A60.274,60.274,0,0,1,233.154,164.133ZM192.29,148.741a77.437,77.437,0,0,1,19.855,30.548,60.077,60.077,0,0,1-19.855,4.769Zm0,43.369a68.211,68.211,0,0,0,22.119-5.05,75.573,75.573,0,0,1,1.867,13.2H192.29Zm0,16.18h23.986a75.573,75.573,0,0,1-1.867,13.2,68.211,68.211,0,0,0-22.119-5.05Zm0,51.517V224.49a60.076,60.076,0,0,1,19.855,4.769A77.437,77.437,0,0,1,192.29,259.807Zm7.867,3.529a85.281,85.281,0,0,0,19.2-30.362,60.178,60.178,0,0,1,13.8,11.441A60.274,60.274,0,0,1,200.157,263.337ZM238.17,238a68.311,68.311,0,0,0-16.376-12.912,83.316,83.316,0,0,0,2.52-16.8h24.067A59.913,59.913,0,0,1,238.17,238Z" transform="translate(-63.774 -71.742)" fill="#ba5b19"/><ellipse cx="5" cy="2.5" rx="5" ry="2.5" transform="translate(9 14)" fill="#ba5b19"/><ellipse cx="5" cy="2.5" rx="5" ry="2.5" transform="translate(23 14)" fill="#ba5b19"/><ellipse cx="2" cy="2.5" rx="2" ry="2.5" transform="translate(38 14)" fill="#ba5b19"/><path d="M68.113,88h-24.1A4.016,4.016,0,0,0,40,92.016v12.048a4.016,4.016,0,0,0,4.016,4.016h24.1a4.016,4.016,0,0,0,4.016-4.016V92.016A4.016,4.016,0,0,0,68.113,88ZM64.1,100.048H48.032V96.032H64.1Z" transform="translate(-23.935 -47.839)" fill="#ba5b19"/><path d="M116.016,96.032h40.161a4.016,4.016,0,0,0,0-8.032H116.016a4.016,4.016,0,0,0,0,8.032Z" transform="translate(-59.79 -47.839)" fill="#ba5b19"/><path d="M128.065,120.032a4.016,4.016,0,0,0,0-8.032H116.016a4.016,4.016,0,0,0,0,8.032Z" transform="translate(-59.79 -59.79)" fill="#ba5b19"/><path d="M412.21,456H364.016a4.016,4.016,0,0,0,0,8.032H412.21a4.016,4.016,0,0,0,0-8.032Z" transform="translate(-183.29 -231.097)" fill="#ba5b19"/><path d="M440.1,432H420.016a4.016,4.016,0,1,0,0,8.032H440.1a4.016,4.016,0,0,0,0-8.032Z" transform="translate(-211.178 -219.145)" fill="#ba5b19"/><path d="M335.53,456h-3.514a4.016,4.016,0,0,0,0,8.032h3.514a4.016,4.016,0,0,0,0-8.032Z" transform="translate(-167.355 -231.097)" fill="#ba5b19"/></g></g></g></svg>