<svg xmlns="http://www.w3.org/2000/svg" width="250" height="250" viewBox="0 0 250 250"><g transform="translate(1115 1263)"><rect width="250" height="250" transform="translate(-1115 -1263)" fill="none"/><g transform="translate(-1123 -1288.5)"><g transform="translate(12.025 44.025)"><path d="M257.507,58.063V204.98H16V58.063A10.06,10.06,0,0,1,26.063,48H247.445A10.06,10.06,0,0,1,257.507,58.063Z" transform="translate(-16 -48)" fill="#eeece7"/><path d="M256.4,424.151H192L200.05,400h48.3Z" transform="translate(-103.447 -222.895)" fill="#eeece7"/></g><g transform="translate(8 40)"><path d="M243.47,40H22.088A14.1,14.1,0,0,0,8,54.088v156.98a14.1,14.1,0,0,0,14.088,14.088h80.955l-5.369,16.1H88.5a4.025,4.025,0,0,0-4.025,4.025v8.05H56.3a4.025,4.025,0,1,0,0,8.05H209.256a4.025,4.025,0,1,0,0-8.05H181.08v-8.05a4.025,4.025,0,0,0-4.025-4.025h-9.172l-5.369-16.1H243.47a14.1,14.1,0,0,0,14.088-14.088V54.088A14.1,14.1,0,0,0,243.47,40ZM173.03,249.306v4.025h-80.5v-4.025Zm-66.867-8.05,5.368-16.1h42.5l5.369,16.1Zm143.345-30.188a6.043,6.043,0,0,1-6.038,6.038H22.088a6.043,6.043,0,0,1-6.038-6.038V205.03H249.507Zm0-14.088H16.05V54.088a6.043,6.043,0,0,1,6.038-6.038H243.47a6.043,6.043,0,0,1,6.038,6.038Z" transform="translate(-8 -40)" fill="#ba5b19"/><path d="M105.279,207.072a4.025,4.025,0,0,0,5.693-5.693L97.717,188.125l13.255-13.254a4.025,4.025,0,0,0-5.693-5.693l-16.1,16.1a4.025,4.025,0,0,0,0,5.693Z" transform="translate(-47.749 -103.598)" fill="#ba5b19"/><path d="M193.179,207.072a4.025,4.025,0,0,0,5.693,0l16.1-16.1a4.025,4.025,0,0,0,0-5.693l-16.1-16.1a4.025,4.025,0,1,0-5.693,5.692l13.255,13.254L193.179,201.38A4.025,4.025,0,0,0,193.179,207.072Z" transform="translate(-99.422 -103.598)" fill="#ba5b19"/><path d="M146.611,207.994a4.022,4.022,0,0,0,5.182-2.356l12.075-32.2a4.025,4.025,0,1,0-7.537-2.827l-12.075,32.2A4.025,4.025,0,0,0,146.611,207.994Z" transform="translate(-75.572 -103.597)" fill="#ba5b19"/><path d="M268.025,208.251h16.1a4.025,4.025,0,1,0,0-8.05H272.05V176.05h12.075a4.025,4.025,0,1,0,0-8.05h-16.1A4.025,4.025,0,0,0,264,172.025v32.2A4.025,4.025,0,0,0,268.025,208.251Z" transform="translate(-135.196 -103.598)" fill="#ba5b19"/><path d="M324.025,200.2a4.025,4.025,0,1,0,0,8.05h16.1a4.025,4.025,0,0,0,4.025-4.025v-16.1a4.025,4.025,0,0,0-4.025-4.025H328.05v-8.05h12.075a4.025,4.025,0,0,0,0-8.05h-16.1A4.025,4.025,0,0,0,320,172.025v16.1a4.025,4.025,0,0,0,4.025,4.025H336.1v8.05Z" transform="translate(-163.02 -103.598)" fill="#ba5b19"/><path d="M380.025,200.2a4.025,4.025,0,1,0,0,8.05h16.1a4.025,4.025,0,0,0,4.025-4.025v-16.1a4.025,4.025,0,0,0-4.025-4.025H384.05v-8.05h12.075a4.025,4.025,0,0,0,0-8.05h-16.1A4.025,4.025,0,0,0,376,172.025v16.1a4.025,4.025,0,0,0,4.025,4.025H392.1v8.05Z" transform="translate(-190.844 -103.598)" fill="#ba5b19"/></g></g></g></svg>