<?xml version="1.0" encoding="utf-8"?>
<!-- Generator: Adobe Illustrator 24.3.0, SVG Export Plug-In . SVG Version: 6.00 Build 0)  -->
<svg version="1.1" id="Layer_1" xmlns="http://www.w3.org/2000/svg" xmlns:xlink="http://www.w3.org/1999/xlink" x="0px" y="0px"
	 viewBox="0 0 200 200" style="enable-background:new 0 0 200 200;" xml:space="preserve">
<style type="text/css">
	.st0{fill:#F8F8F8;}
	.st1{fill:#DCA727;}
</style>
<g transform="translate(56.849 3.139)">
	<path class="st0" d="M137.3,18.4v72.2h-12.6v22l-22-22H90.2V52.9H21.2V18.4H137.3z"/>
	<path class="st0" d="M2.7,81.7L9.3,75l13.3,13.3L16,95L2.7,81.7z"/>
	<path class="st0" d="M29.3,108.3l6.7-6.7L49.3,115l-6.7,6.7L29.3,108.3z"/>
	<path class="st0" d="M2.7,81.7L9.3,75l13.3,13.3L16,95L2.7,81.7z"/>
	<path class="st0" d="M29.3,108.3l6.7-6.7L49.3,115l-6.7,6.7L29.3,108.3z"/>
</g>
<path class="st1" d="M194.2,18.4H78c-1.7,0-3.1,1.4-3.1,3.1v31.4H5.8c-1.7,0-3.1,1.4-3.1,3.1v94.2c0,1.7,1.4,3.1,3.1,3.1
	c0,0,0,0,0,0h22v25.1c0,1.7,1.4,3.1,3.1,3.1c0.8,0,1.6-0.3,2.2-0.9l27.3-27.3h86.6c1.7,0,3.1-1.4,3.1-3.1V96.9h8.1l21.1,21.1
	c1.2,1.2,3.2,1.2,4.4,0c0.6-0.6,0.9-1.4,0.9-2.2V96.9h9.4c1.7,0,3.1-1.4,3.1-3.1v0V21.5C197.3,19.8,195.9,18.4,194.2,18.4
	C194.2,18.4,194.2,18.4,194.2,18.4z M143.9,147.1H59.2c-0.8,0-1.6,0.3-2.2,0.9l-22.9,22.9v-20.7c0-1.7-1.4-3.1-3.1-3.1c0,0,0,0,0,0
	H9V59.2h135V147.1z M191,90.6h-9.4c-1.7,0-3.1,1.4-3.1,3.1v0v14.4l-16.6-16.6c-0.6-0.6-1.4-0.9-2.2-0.9h-9.4V56.1
	c0-1.7-1.4-3.1-3.1-3.1H81.2V24.7H191V90.6z"/>
<path class="st1" d="M143.9,34.1h28.3c1.7,0,3.1-1.4,3.1-3.1c0-1.7-1.4-3.1-3.1-3.1h-28.3c-1.7,0-3.1,1.4-3.1,3.1
	C140.8,32.7,142.2,34.1,143.9,34.1C143.9,34.1,143.9,34.1,143.9,34.1z"/>
<path class="st1" d="M181.6,34.1h3.1c1.7,0,3.1-1.4,3.1-3.1c0-1.7-1.4-3.1-3.1-3.1h-3.1c-1.7,0-3.1,1.4-3.1,3.1
	C178.5,32.7,179.9,34.1,181.6,34.1C181.6,34.1,181.6,34.1,181.6,34.1z"/>
<path class="st1" d="M84,131.4c3.7,3.7,9.6,3.7,13.3,0l4.4-4.4l6.7-6.7c1.2-1.2,1.2-3.2,0-4.4l-13.3-13.3c-1.2-1.2-3.2-1.2-4.4,0
	l-4.4,4.4l-8.9-8.9l4.4-4.4c1.2-1.2,1.2-3.2,0-4.4L68.4,75.9c-1.2-1.2-3.2-1.2-4.4,0l-6.7,6.7L52.9,87c-3.7,3.7-3.7,9.6,0,13.3
	c0,0,0,0,0,0L84,131.4z M92.8,109.2l8.9,8.9l-2.2,2.2l-8.9-8.9L92.8,109.2z M66.2,82.6l8.9,8.9l-2.2,2.2L64,84.8L66.2,82.6z
	 M57.3,91.5l2.2-2.2l35.5,35.5l-2.2,2.2c-1.2,1.2-3.2,1.2-4.4,0L57.3,95.9C56.1,94.7,56.1,92.7,57.3,91.5L57.3,91.5z"/>
</svg>
