<svg xmlns="http://www.w3.org/2000/svg" width="250" height="250" viewBox="0 0 250 250"><g transform="translate(796 1263)"><rect width="250" height="250" transform="translate(-796 -1263)" fill="none"/><g transform="translate(-804 -1290.839)"><g transform="translate(80.856 52.023)"><path d="M348.85,56v92.528H332.758v28.161L304.6,148.528H288.505V100.253H200V56Z" transform="translate(-176.305 -56)" fill="#eeece7"/><path d="M0,0H12.068V24.137H0Z" transform="translate(0 81.091) rotate(-45)" fill="#eeece7"/><path d="M0,0H12.068V24.137H0Z" transform="translate(34.127 115.226) rotate(-45)" fill="#eeece7"/><path d="M0,0H12.068V24.137H0Z" transform="translate(0 81.091) rotate(-45)" fill="#eeece7"/><path d="M0,0H12.068V24.137H0Z" transform="translate(34.127 115.226) rotate(-45)" fill="#eeece7"/></g><path d="M253.4,48H104.551a4.023,4.023,0,0,0-4.023,4.023v40.23H12.023A4.023,4.023,0,0,0,8,96.276V216.964a4.023,4.023,0,0,0,4.023,4.023H40.184v32.184a4.023,4.023,0,0,0,6.868,2.845L82.08,220.987H193.056a4.023,4.023,0,0,0,4.023-4.023v-68.39h10.4l26.982,26.983a4.023,4.023,0,0,0,6.868-2.845V148.574H253.4a4.023,4.023,0,0,0,4.023-4.023V52.023A4.023,4.023,0,0,0,253.4,48ZM189.033,212.941H80.413a4.023,4.023,0,0,0-2.845,1.178L48.23,243.459V216.964a4.023,4.023,0,0,0-4.023-4.023H16.046V100.3H189.033Zm60.344-72.413H237.309a4.023,4.023,0,0,0-4.023,4.023V163l-21.293-21.294a4.023,4.023,0,0,0-2.845-1.178H197.079V96.276a4.023,4.023,0,0,0-4.023-4.023H108.574V56.046h140.8Z" fill="#ba5b19"/><path d="M364.023,80.046H400.23a4.023,4.023,0,0,0,0-8.046H364.023a4.023,4.023,0,1,0,0,8.046Z" transform="translate(-174.99 -11.931)" fill="#ba5b19"/><path d="M460.023,80.046h4.023a4.023,4.023,0,0,0,0-8.046h-4.023a4.023,4.023,0,1,0,0,8.046Z" transform="translate(-222.714 -11.931)" fill="#ba5b19"/><path d="M172.277,264.584a12.069,12.069,0,0,0,17.068,0l5.691-5.69,8.534-8.534a4.023,4.023,0,0,0,0-5.689L186.5,227.6a4.023,4.023,0,0,0-5.689,0l-5.69,5.69-11.38-11.38,5.69-5.69a4.023,4.023,0,0,0,0-5.689l-17.068-17.068a4.023,4.023,0,0,0-5.689,0L138.141,202l-5.689,5.689a12.069,12.069,0,0,0,0,17.068Zm11.379-28.447,11.38,11.379-2.845,2.845-11.379-11.379ZM149.519,202,160.9,213.378l-2.845,2.845-11.379-11.378Zm-11.379,11.38,2.845-2.844L186.5,256.05l-2.845,2.845a4.023,4.023,0,0,1-5.689,0l-39.827-39.827a4.023,4.023,0,0,1,0-5.69Z" transform="translate(-60.111 -71.73)" fill="#ba5b19"/></g></g></svg>