<svg xmlns="http://www.w3.org/2000/svg" width="250" height="250" viewBox="0 0 250 250"><g transform="translate(1434 901)"><g transform="translate(-182 -216)"><rect width="250" height="250" transform="translate(-1252 -685)" fill="none"/></g><g transform="translate(-1433.989 -901)"><path d="M128.517,109.6,8.027,56.77,128.517,8,249.007,56.77Zm0,0" transform="translate(-3.948 -3.938)" fill="#eeece7"/><g transform="translate(0.003)"><path d="M287.752,148.477a4,4,0,0,0,1.726-.387l8.015-3.77a4.065,4.065,0,0,0-3.463-7.356l-8.011,3.772a4.064,4.064,0,0,0,1.732,7.741Zm0,0" transform="translate(-128.642 -68.016)" fill="#ba5b19"/><path d="M337.1,116.752a4.089,4.089,0,0,0,1.687-.365l25.8-11.745a4.065,4.065,0,1,0-3.367-7.4L335.418,108.99a4.064,4.064,0,0,0,1.687,7.763Zm0,0" transform="translate(-147.427 -48.265)" fill="#ba5b19"/><path d="M246.515,189.191,173.6,159.926l73.041-31.743a3.9,3.9,0,0,0-.121-7.32L168.792,89.68l77.832-33.825a3.9,3.9,0,0,0-.117-7.32L126.309.336a4.679,4.679,0,0,0-3.48,0L2.621,48.554a3.9,3.9,0,0,0-.117,7.32L80.338,89.7,2.621,120.882A3.9,3.9,0,0,0,2.5,128.2l73.043,31.745L2.621,189.191a3.9,3.9,0,0,0-.121,7.32l120.215,52.237a4.665,4.665,0,0,0,3.707,0l120.215-52.237a3.9,3.9,0,0,0-.121-7.32ZM124.569,8.4,234.21,52.388,124.569,100.055,14.926,52.388ZM90.828,94.253l31.886,13.858a4.665,4.665,0,0,0,3.707,0L158.31,94.253l75.9,30.458L124.569,172.382,14.926,124.711Zm33.741,146.439L14.926,193.025,86.05,164.5l36.683,15.939a4.66,4.66,0,0,0,3.705,0L163.121,164.5l71.125,28.53Zm0,0" transform="translate(-0.003)" fill="#ba5b19"/></g></g></g></svg>