<?xml version="1.0" encoding="utf-8"?>
<!-- Generator: Adobe Illustrator 24.3.0, SVG Export Plug-In . SVG Version: 6.00 Build 0)  -->
<svg version="1.1" id="Layer_1" xmlns="http://www.w3.org/2000/svg" xmlns:xlink="http://www.w3.org/1999/xlink" x="0px" y="0px"
	 viewBox="0 0 200 200" style="enable-background:new 0 0 200 200;" xml:space="preserve">
<style type="text/css">
	.st0{fill:none;}
	.st1{fill:#EDEDED;}
	.st2{fill:#DCA727;}
</style>
<g transform="translate(15742 21345)">
	<rect x="-15737.1" y="-21345" class="st0" width="190.1" height="199.9"/>
	<g transform="translate(-15734 -21345)">
		<g transform="translate(3.308 3.308)">
			<path class="st1" d="M127.2,6.4v12.9H4.7V6.4c0-3.6,2.9-6.4,6.5-6.5h109.7C124.3-0.1,127.2,2.8,127.2,6.4z"/>
			<path class="st1" d="M101.4,187v-19.4H4.7V187c0,3.6,2.9,6.4,6.5,6.5h96.8C104.3,193.5,101.4,190.6,101.4,187z M65.9,187
				c-3.6,0-6.5-2.9-6.5-6.5c0-3.6,2.9-6.5,6.5-6.5c3.6,0,6.5,2.9,6.5,6.5v0C72.4,184.1,69.5,187,65.9,187z"/>
			<path class="st1" d="M156.3,74.1L153,87h-32.3l-3.2-12.9H156.3z"/>
			<path class="st1" d="M156.3,74.1L153,87h-32.3l-3.2-12.9H156.3z"/>
		</g>
		<path class="st2" d="M82.2,9.7H56.3c-1.8,0-3.2,1.4-3.2,3.2s1.4,3.2,3.2,3.2h25.8c1.8,0,3.2-1.4,3.2-3.2
			C85.4,11.1,83.9,9.7,82.2,9.7z"/>
		<path class="st2" d="M95.1,9.7h-3.2c-1.8,0-3.2,1.4-3.2,3.2s1.4,3.2,3.2,3.2h3.2c1.8,0,3.2-1.4,3.2-3.2
			C98.3,11.1,96.8,9.7,95.1,9.7L95.1,9.7z"/>
		<path class="st2" d="M78.9,183.9c0-5.3-4.3-9.7-9.7-9.7s-9.7,4.3-9.7,9.7c0,5.3,4.3,9.7,9.7,9.7S78.9,189.2,78.9,183.9L78.9,183.9
			z M69.3,187.1c-1.8,0-3.2-1.4-3.2-3.2c0-1.8,1.4-3.2,3.2-3.2s3.2,1.4,3.2,3.2l0,0C72.5,185.7,71,187.1,69.3,187.1
			C69.3,187.1,69.3,187.1,69.3,187.1L69.3,187.1z"/>
		<path class="st2" d="M169.3,74.2h-35.5V9.7c0-5.3-4.3-9.7-9.7-9.7c0,0,0,0,0,0H14.4C9.1,0,4.7,4.3,4.7,9.7v180.6
			c0,5.3,4.3,9.7,9.7,9.7c0,0,0,0,0,0h154.8c5.3,0,9.7-4.3,9.7-9.7l0,0V83.9C178.9,78.5,174.6,74.2,169.3,74.2z M155.4,80.6
			l-1.6,6.5h-27.2l-1.6-6.5H155.4z M111.2,74.2c-5.3,0-9.7,4.3-9.7,9.7c0,0,0,0,0,0v83.9H11.2V25.8h116.1v48.4H111.2z M11.2,9.7
			c0-1.8,1.4-3.2,3.2-3.2h109.7c1.8,0,3.2,1.4,3.2,3.2c0,0,0,0,0,0v9.7H11.2V9.7z M14.4,193.5c-1.8,0-3.2-1.4-3.2-3.2v-16.1h90.3
			v16.1c0,1.1,0.2,2.2,0.6,3.2H14.4z M172.5,190.3c0,1.8-1.4,3.2-3.2,3.2h-58.1c-1.8,0-3.2-1.4-3.2-3.2V83.9c0-1.8,1.4-3.2,3.2-3.2
			h7.2l2.6,10.5c0.4,1.4,1.7,2.4,3.1,2.4h32.3c1.5,0,2.8-1,3.1-2.4l2.6-10.5h7.2c1.8,0,3.2,1.4,3.2,3.2L172.5,190.3z"/>
	</g>
</g>
</svg>
