<?xml version="1.0" encoding="utf-8"?>
<!-- Generator: Adobe Illustrator 24.3.0, SVG Export Plug-In . SVG Version: 6.00 Build 0)  -->
<svg version="1.1" id="Layer_1" xmlns="http://www.w3.org/2000/svg" xmlns:xlink="http://www.w3.org/1999/xlink" x="0px" y="0px"
	 viewBox="0 0 200 200" style="enable-background:new 0 0 200 200;" xml:space="preserve">
<style type="text/css">
	.st0{fill:#F8F8F8;}
	.st1{fill:#DCA727;}
</style>
<g transform="translate(2.905 2.905)">
	<path class="st0" d="M0.3,0.3h12.9v12.9H0.3V0.3z"/>
	<path class="st0" d="M90.6,0.3h12.9v12.9H90.6V0.3z"/>
	<path class="st0" d="M181,0.3h12.9v12.9H181V0.3z"/>
	<path class="st0" d="M0.3,181h12.9v12.9H0.3V181z"/>
	<path class="st0" d="M90.6,181h12.9v12.9H90.6V181z"/>
	<path class="st0" d="M0.3,90.6h12.9v12.9H0.3V90.6z"/>
	<path class="st0" d="M181,90.6h12.9v12.9H181V90.6z"/>
	<path class="st0" d="M29.4,100.3h58.1v58.1H29.4V100.3z"/>
	<path class="st0" d="M132.6,93.9h29V35.8l-36.4,36.4"/>
</g>
<path class="st1" d="M196.8,19.4c1.8,0,3.2-1.4,3.2-3.2V3.2c0-1.8-1.4-3.2-3.2-3.2h-12.9c-1.8,0-3.2,1.4-3.2,3.2v3.2h-71V3.2
	c0-1.8-1.4-3.2-3.2-3.2c0,0,0,0,0,0H93.5c-1.8,0-3.2,1.4-3.2,3.2v3.2h-71V3.2c0-1.8-1.4-3.2-3.2-3.2c0,0,0,0,0,0H3.2
	C1.4,0,0,1.4,0,3.2v12.9c0,1.8,1.4,3.2,3.2,3.2c0,0,0,0,0,0h3.2v71H3.2c-1.8,0-3.2,1.4-3.2,3.2v12.9c0,1.8,1.4,3.2,3.2,3.2h3.2v71
	H3.2c-1.8,0-3.2,1.4-3.2,3.2v12.9c0,1.8,1.4,3.2,3.2,3.2h12.9c1.8,0,3.2-1.4,3.2-3.2v-3.2h71v3.2c0,1.8,1.4,3.2,3.2,3.2h12.9
	c1.8,0,3.2-1.4,3.2-3.2v-3.2h71v3.2c0,1.8,1.4,3.2,3.2,3.2h12.9c1.8,0,3.2-1.4,3.2-3.2v-12.9c0-1.8-1.4-3.2-3.2-3.2h-3.2v-71h3.2
	c1.8,0,3.2-1.4,3.2-3.2V93.5c0-1.8-1.4-3.2-3.2-3.2h-3.2v-71H196.8z M187.1,6.5h6.5v6.5h-6.5V6.5z M96.8,6.5h6.5v6.5h-6.5V6.5z
	 M6.5,6.5h6.5v6.5H6.5V6.5z M6.5,96.8h6.5v6.5H6.5V96.8z M12.9,193.5H6.5v-6.5h6.5V193.5z M103.2,193.5h-6.5v-6.5h6.5V193.5z
	 M193.5,193.5h-6.5v-6.5h6.5V193.5z M193.5,103.2h-6.5v-6.5h6.5V103.2z M187.1,90.3h-3.2c-1.8,0-3.2,1.4-3.2,3.2v12.9
	c0,1.8,1.4,3.2,3.2,3.2h3.2v71h-3.2c-1.8,0-3.2,1.4-3.2,3.2v3.2h-71v-3.2c0-1.8-1.4-3.2-3.2-3.2H93.5c-1.8,0-3.2,1.4-3.2,3.2v3.2
	h-71v-3.2c0-1.8-1.4-3.2-3.2-3.2h-3.2v-71h3.2c1.8,0,3.2-1.4,3.2-3.2V93.5c0-1.8-1.4-3.2-3.2-3.2h-3.2v-71h3.2
	c1.8,0,3.2-1.4,3.2-3.2l0,0v-3.2h71v3.2c0,1.8,1.4,3.2,3.2,3.2h12.9c1.8,0,3.2-1.4,3.2-3.2v-3.2h71v3.2c0,1.8,1.4,3.2,3.2,3.2h3.2
	V90.3z"/>
<path class="st1" d="M165.8,35.7c-1.2-0.5-2.6-0.2-3.5,0.7l-34,34C121,62.5,110.7,58,100,58.1c-21.4,0-38.7,17.3-38.7,38.7
	c0,1.1,0.1,2.2,0.1,3.2H32.3c-1.8,0-3.2,1.4-3.2,3.2v58.1c0,1.8,1.4,3.2,3.2,3.2h58.1c1.8,0,3.2-1.4,3.2-3.2v-26.4
	c21,3.6,41-10.5,44.6-31.5c0.2-1.1,0.3-2.3,0.4-3.4h26c1.8,0,3.2-1.4,3.2-3.2V38.7C167.7,37.4,167,36.2,165.8,35.7z M87.1,158.1
	H35.5v-51.6h51.6L87.1,158.1z M100,129c-2.2,0-4.3-0.3-6.5-0.7v-25.1c0-1.8-1.4-3.2-3.2-3.2H67.9c-0.1-1.1-0.2-2.1-0.2-3.2
	c0-17.8,14.4-32.3,32.3-32.3s32.3,14.4,32.3,32.3S117.8,129,100,129L100,129z M161.3,93.5h-22.7c-0.5-6.5-2.7-12.7-6.3-18.1l29-29
	L161.3,93.5z"/>
<path class="st1" d="M164.5,171h-22.6c-1.8,0-3.2,1.4-3.2,3.2c0,1.8,1.4,3.2,3.2,3.2h22.6c1.8,0,3.2-1.4,3.2-3.2
	C167.7,172.4,166.3,171,164.5,171z"/>
<path class="st1" d="M177.4,171h-3.2c-1.8,0-3.2,1.4-3.2,3.2c0,1.8,1.4,3.2,3.2,3.2h3.2c1.8,0,3.2-1.4,3.2-3.2
	C180.6,172.4,179.2,171,177.4,171L177.4,171z"/>
</svg>
