<svg xmlns="http://www.w3.org/2000/svg" width="250" height="250" viewBox="0 0 250 250"><g transform="translate(861 901)"><g transform="translate(391 -216)"><rect width="250" height="250" transform="translate(-1252 -685)" fill="none"/></g><g transform="translate(-860.453 -860.242)"><path d="M128.7,175.6a39.228,39.228,0,1,1,39.228-39.228A39.228,39.228,0,0,1,128.7,175.6Zm-76.445,9.053H32.141V88.094H52.258ZM241.359,72H16.047A8.073,8.073,0,0,0,8,80.047V192.7a8.073,8.073,0,0,0,8.047,8.047H241.359a8.073,8.073,0,0,0,8.047-8.047V80.047A8.073,8.073,0,0,0,241.359,72Zm-4.023,40.234H197.1V88.094h40.234Zm0,0" transform="translate(-3.977 -35.789)" fill="#eeece7"/><path d="M196.3,96a52.3,52.3,0,1,0,52.3,52.3A52.3,52.3,0,0,0,196.3,96Zm0,91.533A39.228,39.228,0,1,1,235.533,148.3,39.229,39.229,0,0,1,196.3,187.533Zm0,0" transform="translate(-71.578 -47.719)" fill="#eeece7"/><path d="M48,40H76.164V56.094H48Zm0,0" transform="translate(-23.859 -19.883)" fill="#eeece7"/><g transform="translate(0 0)"><path d="M192.328,88a56.328,56.328,0,1,0,56.328,56.328A56.328,56.328,0,0,0,192.328,88Zm0,104.609a48.281,48.281,0,1,1,48.281-48.281A48.281,48.281,0,0,1,192.328,192.609Zm0,0" transform="translate(-67.602 -43.742)" fill="#ba5b19"/><path d="M205.252,114A43.252,43.252,0,1,0,248.5,157.252,43.252,43.252,0,0,0,205.252,114Zm0,78.457a35.2,35.2,0,1,1,35.205-35.205A35.2,35.2,0,0,1,205.252,192.457Zm0,0" transform="translate(-80.526 -56.666)" fill="#ba5b19"/><path d="M209.274,150.883a28.279,28.279,0,0,0-10.312,10.308,4.023,4.023,0,0,0,6.964,4.031,20.253,20.253,0,0,1,7.371-7.379,4.023,4.023,0,1,0-4.023-6.96Zm0,0" transform="translate(-98.629 -74.687)" fill="#ba5b19"/><path d="M244.023,144a4.023,4.023,0,1,0,0,8.047,20.141,20.141,0,0,1,20.117,20.117,4.023,4.023,0,1,0,8.047,0A28.2,28.2,0,0,0,244.023,144Zm0,0" transform="translate(-119.297 -71.578)" fill="#ba5b19"/><path d="M237.382,32.187H171.772L160.684,2.607A4.024,4.024,0,0,0,156.914,0H92.539a4.024,4.024,0,0,0-3.77,2.607L77.681,32.187H56.328V20.117A4.024,4.024,0,0,0,52.3,16.094H48.281V8.047a4.024,4.024,0,0,0-4.023-4.023H32.187a4.024,4.024,0,0,0-4.023,4.023v8.047H24.141a4.024,4.024,0,0,0-4.023,4.023v12.07H12.07A12.071,12.071,0,0,0,0,44.258V156.914a12.071,12.071,0,0,0,12.07,12.07H237.382a12.071,12.071,0,0,0,12.07-12.07V44.258A12.071,12.071,0,0,0,237.382,32.187ZM95.327,8.047h58.8l9.053,24.141h-76.9ZM36.211,12.07h4.023v4.023H36.211Zm-8.047,12.07H48.281v8.047H28.164ZM241.406,156.914a4.024,4.024,0,0,1-4.023,4.023H12.07a4.024,4.024,0,0,1-4.023-4.023V44.258a4.024,4.024,0,0,1,4.023-4.023H237.382a4.024,4.024,0,0,1,4.023,4.023Zm0,0" transform="translate(0 0)" fill="#ba5b19"/><path d="M420.258,96H380.023A4.024,4.024,0,0,0,376,100.023v24.141a4.024,4.024,0,0,0,4.023,4.023h40.234a4.024,4.024,0,0,0,4.024-4.023V100.023A4.024,4.024,0,0,0,420.258,96Zm-4.023,24.141H384.047V104.047h32.188Zm0,0" transform="translate(-186.899 -47.719)" fill="#ba5b19"/><path d="M72.141,96H52.023A4.024,4.024,0,0,0,48,100.023v96.562a4.024,4.024,0,0,0,4.023,4.023H72.141a4.024,4.024,0,0,0,4.023-4.023V100.023A4.024,4.024,0,0,0,72.141,96Zm-4.023,96.562H56.047V104.047h12.07Zm0,0" transform="translate(-23.859 -47.719)" fill="#ba5b19"/><path d="M396.211,288H364.023a4.023,4.023,0,0,0,0,8.047h32.188a4.023,4.023,0,1,0,0-8.047Zm0,0" transform="translate(-178.946 -143.157)" fill="#ba5b19"/><path d="M456.047,288h-4.024a4.023,4.023,0,1,0,0,8.047h4.024a4.023,4.023,0,1,0,0-8.047Zm0,0" transform="translate(-222.688 -143.157)" fill="#ba5b19"/></g></g></g></svg>