<?xml version="1.0" encoding="utf-8"?>
<!-- Generator: Adobe Illustrator 24.3.0, SVG Export Plug-In . SVG Version: 6.00 Build 0)  -->
<svg version="1.1" id="Layer_1" xmlns="http://www.w3.org/2000/svg" xmlns:xlink="http://www.w3.org/1999/xlink" x="0px" y="0px"
	 viewBox="0 0 200 200" style="enable-background:new 0 0 200 200;" xml:space="preserve">
<style type="text/css">
	.st0{fill:none;}
	.st1{fill:#F8F8F8;}
	.st2{fill:#DCA727;}
</style>
<g transform="translate(15742 21104)">
	<rect x="-15739.5" y="-21103.5" class="st0" width="195" height="205"/>
	<g transform="translate(-15738 -21104)">
		<g transform="translate(3.032 3.032)">
			<path class="st1" d="M184.4,8.1v110.7H2.5V8.1c0-4.2,3.4-7.6,7.6-7.6c0,0,0,0,0,0h166.8C181,0.5,184.4,3.9,184.4,8.1
				C184.4,8.1,184.4,8.1,184.4,8.1z"/>
			<path class="st1" d="M117.7,152.1H69.2l6.1-18.2h36.4L117.7,152.1z"/>
		</g>
		<g transform="translate(0 0)">
			<path class="st2" d="M179.9,0.5H13.1C7.3,0.5,2.5,5.3,2.5,11.1v118.2c0,5.9,4.8,10.6,10.6,10.6h61l-4,12.1h-6.9c-1.7,0-3,1.4-3,3
				v6.1H38.9c-1.7,0-3,1.4-3,3c0,1.7,1.4,3,3,3h115.2c1.7,0,3-1.4,3-3c0-1.7-1.4-3-3-3h-21.2v-6.1c0-1.7-1.4-3-3-3h-6.9l-4-12.1h61
				c5.9,0,10.6-4.8,10.6-10.6V11.1C190.5,5.3,185.7,0.5,179.9,0.5z M126.8,158.2v3H66.2v-3L126.8,158.2z M76.4,152.1l4-12.1h32
				l4,12.1H76.4z M184.4,129.4c0,2.5-2,4.5-4.5,4.5H13.1c-2.5,0-4.5-2-4.5-4.5v-4.5h175.9V129.4z M184.4,118.8H8.6V11.1
				c0-2.5,2-4.5,4.5-4.5h166.8c2.5,0,4.5,2,4.5,4.5V118.8z"/>
			<path class="st2" d="M45.8,78.5c1.2,1.2,3.1,1.2,4.3,0c1.2-1.2,1.2-3.1,0-4.3l-10-10l10-10c1.2-1.2,1.2-3.1,0-4.3
				c-1.2-1.2-3.1-1.2-4.3,0L33.7,62.1c-1.2,1.2-1.2,3.1,0,4.3c0,0,0,0,0,0L45.8,78.5z"/>
			<path class="st2" d="M73.1,78.5c1.2,1.2,3.1,1.2,4.3,0c0,0,0,0,0,0l12.1-12.1c1.2-1.2,1.2-3.1,0-4.3c0,0,0,0,0,0L77.4,49.9
				c-1.2-1.2-3.1-1.2-4.3,0s-1.2,3.1,0,4.3l0,0l10,10l-10,10C71.9,75.4,71.9,77.3,73.1,78.5C73.1,78.5,73.1,78.5,73.1,78.5z"/>
			<path class="st2" d="M56,79.2c1.6,0.6,3.3-0.2,3.9-1.8c0,0,0,0,0,0L69,53.1c0.6-1.6-0.2-3.3-1.8-3.9c-1.6-0.6-3.3,0.2-3.9,1.8
				l-9.1,24.3C53.6,76.8,54.4,78.6,56,79.2C56,79.2,56,79.2,56,79.2z"/>
			<path class="st2" d="M102.6,79.4h12.1c1.7,0,3-1.4,3-3c0-1.7-1.4-3-3-3c0,0,0,0,0,0h-9.1V55.1h9.1c1.7,0,3-1.4,3-3
				c0-1.7-1.4-3-3-3c0,0,0,0,0,0h-12.1c-1.7,0-3,1.4-3,3c0,0,0,0,0,0v24.3C99.5,78,100.9,79.4,102.6,79.4L102.6,79.4z"/>
			<path class="st2" d="M123.8,73.3c-1.7,0-3,1.4-3,3c0,1.7,1.4,3,3,3c0,0,0,0,0,0h12.1c1.7,0,3-1.4,3-3c0,0,0,0,0,0V64.2
				c0-1.7-1.4-3-3-3l0,0h-9.1v-6.1h9.1c1.7,0,3-1.4,3-3c0-1.7-1.4-3-3-3h-12.1c-1.7,0-3,1.4-3,3v12.1c0,1.7,1.4,3,3,3l0,0h9.1v6.1
				H123.8z"/>
			<path class="st2" d="M145,73.3c-1.7,0-3,1.4-3,3c0,1.7,1.4,3,3,3c0,0,0,0,0,0h12.1c1.7,0,3-1.4,3-3c0,0,0,0,0,0V64.2
				c0-1.7-1.4-3-3-3l0,0H148v-6.1h9.1c1.7,0,3-1.4,3-3c0-1.7-1.4-3-3-3H145c-1.7,0-3,1.4-3,3v12.1c0,1.7,1.4,3,3,3l0,0h9.1v6.1H145z
				"/>
		</g>
	</g>
</g>
</svg>
