<svg xmlns="http://www.w3.org/2000/svg" width="250" height="250" viewBox="0 0 250 250"><g transform="translate(1148 901)"><g transform="translate(104 -216)"><rect width="250" height="250" transform="translate(-1252 -685)" fill="none"/></g><g transform="translate(-1147 -901)"><g transform="translate(3.861 3.861)"><path d="M8,8H23.443V23.443H8ZM8,8" transform="translate(-8 -8)" fill="#eeece7"/><path d="M232,8h15.443V23.443H232Zm0,0" transform="translate(-119.098 -8)" fill="#eeece7"/><path d="M456,8h15.443V23.443H456Zm0,0" transform="translate(-230.195 -8)" fill="#eeece7"/><path d="M8,456H23.443v15.443H8Zm0,0" transform="translate(-8 -230.195)" fill="#eeece7"/><path d="M232,456h15.443v15.443H232Zm0,0" transform="translate(-119.098 -230.195)" fill="#eeece7"/><path d="M8,232H23.443v15.443H8Zm0,0" transform="translate(-8 -119.098)" fill="#eeece7"/><path d="M456,232h15.443v15.443H456Zm0,0" transform="translate(-230.195 -119.098)" fill="#eeece7"/><path d="M80,256h69.494v69.494H80Zm0,0" transform="translate(-45.253 -129.23)" fill="#eeece7"/><path d="M326.521,165.494h34.747V96L317.68,139.588" transform="translate(-160.599 -51.017)" fill="#eeece7"/></g><path d="M244.954,24.094a4.016,4.016,0,0,0,4.016-4.016V4.016A4.016,4.016,0,0,0,244.954,0H228.891a4.016,4.016,0,0,0-4.016,4.016V8.031H136.532V4.016A4.016,4.016,0,0,0,132.516,0H116.453a4.016,4.016,0,0,0-4.016,4.016V8.031H24.094V4.016A4.016,4.016,0,0,0,20.078,0H4.016A4.016,4.016,0,0,0,0,4.016V20.078a4.016,4.016,0,0,0,4.016,4.016H8.031v88.344H4.016A4.016,4.016,0,0,0,0,116.453v16.063a4.016,4.016,0,0,0,4.016,4.016H8.031v88.344H4.016A4.016,4.016,0,0,0,0,228.891v16.063a4.016,4.016,0,0,0,4.016,4.016H20.078a4.016,4.016,0,0,0,4.016-4.016v-4.016h88.344v4.016a4.016,4.016,0,0,0,4.016,4.016h16.063a4.016,4.016,0,0,0,4.016-4.016v-4.016h88.344v4.016a4.016,4.016,0,0,0,4.016,4.016h16.063a4.016,4.016,0,0,0,4.016-4.016V228.891a4.016,4.016,0,0,0-4.016-4.016h-4.016V136.532h4.016a4.016,4.016,0,0,0,4.016-4.016V116.453a4.016,4.016,0,0,0-4.016-4.016h-4.016V24.094ZM232.907,8.031h8.031v8.031h-8.031Zm-112.438,0H128.5v8.031h-8.031Zm-112.438,0h8.031v8.031H8.031Zm0,112.438h8.031V128.5H8.031Zm8.031,120.469H8.031v-8.031h8.031Zm112.438,0h-8.031v-8.031H128.5Zm112.438,0h-8.031v-8.031h8.031Zm0-112.438h-8.031v-8.031h8.031Zm-8.031-16.063h-4.016a4.016,4.016,0,0,0-4.016,4.016v16.063a4.016,4.016,0,0,0,4.016,4.016h4.016v88.344h-4.016a4.016,4.016,0,0,0-4.016,4.016v4.016H136.532v-4.016a4.016,4.016,0,0,0-4.016-4.016H116.453a4.016,4.016,0,0,0-4.016,4.016v4.016H24.094v-4.016a4.016,4.016,0,0,0-4.016-4.016H16.063V136.532h4.016a4.016,4.016,0,0,0,4.016-4.016V116.453a4.016,4.016,0,0,0-4.016-4.016H16.063V24.094h4.016a4.016,4.016,0,0,0,4.016-4.016V16.063h88.344v4.016a4.016,4.016,0,0,0,4.016,4.016h16.063a4.016,4.016,0,0,0,4.016-4.016V16.063h88.344v4.016a4.016,4.016,0,0,0,4.016,4.016h4.016Zm0,0" fill="#ba5b19"/><path d="M235.631,88.312a3.7,3.7,0,0,0-4.208.889l-40.649,43.177a44.638,44.638,0,0,0-33.837-15.672c-25.576.03-46.3,22.044-46.329,49.21,0,1.378.07,2.743.173,4.1H75.861a3.986,3.986,0,0,0-3.861,4.1v73.814a3.986,3.986,0,0,0,3.861,4.1h69.494a3.986,3.986,0,0,0,3.861-4.1V214.42a44.193,44.193,0,0,0,36.135-9.6,49.975,49.975,0,0,0,17.72-34.8h31.082a3.986,3.986,0,0,0,3.861-4.1V92.1A4.112,4.112,0,0,0,235.631,88.312ZM141.494,243.83H79.722V178.218h61.773Zm15.443-36.907a35.6,35.6,0,0,1-7.722-.923V174.117a3.986,3.986,0,0,0-3.861-4.1H118.525c-.123-1.35-.2-2.719-.2-4.1.023-22.638,17.294-40.984,38.608-41.008,21.312.028,38.581,18.372,38.608,41.008C195.522,188.554,178.251,206.9,156.937,206.923Zm73.355-45.109h-27.18a50.234,50.234,0,0,0-7.5-22.965L230.292,102Zm0,0" transform="translate(-37.253 -45.531)" fill="#ba5b19"/><path d="M374.886,424H347.861a3.861,3.861,0,0,0,0,7.722h27.026a3.861,3.861,0,0,0,0-7.722Zm0,0" transform="translate(-170.197 -209.778)" fill="#ba5b19"/><path d="M431.722,424h-3.861a3.861,3.861,0,0,0,0,7.722h3.861a3.861,3.861,0,0,0,0-7.722Zm0,0" transform="translate(-209.778 -209.778)" fill="#ba5b19"/></g></g></svg>