<?xml version="1.0" encoding="utf-8"?>
<!-- Generator: Adobe Illustrator 24.3.0, SVG Export Plug-In . SVG Version: 6.00 Build 0)  -->
<svg version="1.1" id="Layer_1" xmlns="http://www.w3.org/2000/svg" xmlns:xlink="http://www.w3.org/1999/xlink" x="0px" y="0px"
	 viewBox="0 0 200 200" style="enable-background:new 0 0 200 200;" xml:space="preserve">
<style type="text/css">
	.st0{fill:#F8F8F8;}
	.st1{fill:#DCA727;}
</style>
<path class="st0" d="M100,84L11.4,42.3L100,3.8l88.6,38.5L100,84z"/>
<g transform="translate(0)">
	<path class="st1" d="M125.1,64.7c0.5,0,0.9-0.1,1.4-0.3l6.3-3c1.6-0.7,2.4-2.6,1.7-4.2c-0.7-1.6-2.6-2.4-4.2-1.7
		c-0.1,0-0.1,0-0.2,0.1l-6.3,3c-1.6,0.8-2.3,2.7-1.5,4.3C122.7,64,123.9,64.7,125.1,64.7L125.1,64.7z"/>
	<path class="st1" d="M144.9,55.1c0.5,0,0.9-0.1,1.3-0.3l20.4-9.3c1.6-0.7,2.4-2.6,1.7-4.2c-0.7-1.6-2.6-2.4-4.2-1.7
		c0,0-0.1,0-0.1,0L143.6,49c-1.6,0.7-2.3,2.6-1.6,4.2C142.5,54.4,143.7,55.1,144.9,55.1L144.9,55.1z"/>
	<path class="st1" d="M189.9,151.6l-53.8-23.4l53.9-25.3c1.6-0.8,2.3-2.7,1.5-4.3c-0.3-0.7-0.9-1.3-1.6-1.6l-57.3-24.9l57.4-27
		c1.6-0.8,2.3-2.7,1.5-4.3c-0.3-0.7-0.9-1.3-1.6-1.6L101.3,0.8c-0.8-0.4-1.7-0.4-2.6,0L10.1,39.3c-1.6,0.7-2.4,2.6-1.7,4.2
		c0.3,0.7,0.9,1.3,1.6,1.6l57.4,27L10.1,97.1c-1.6,0.7-2.4,2.6-1.7,4.2c0.3,0.7,0.9,1.3,1.6,1.6l53.9,25.3l-53.8,23.3
		c-1.6,0.7-2.4,2.6-1.7,4.2c0.3,0.7,0.9,1.3,1.6,1.6l88.6,41.7c0.9,0.4,1.9,0.4,2.7,0l88.6-41.7c1.6-0.8,2.3-2.7,1.5-4.3
		C191.2,152.5,190.6,151.9,189.9,151.6L189.9,151.6z M100,7.3l80.8,35.1L100,80.4L19.2,42.4L100,7.3z M75.1,75.8l23.5,11.1
		c0.9,0.4,1.9,0.4,2.7,0l23.5-11.1l56,24.3L100,138.2l-80.8-38.1L75.1,75.8z M100,192.7l-80.8-38.1l52.4-22.8l27,12.7
		c0.9,0.4,1.9,0.4,2.7,0l27.1-12.7l52.4,22.8L100,192.7z"/>
</g>
</svg>
