<svg xmlns="http://www.w3.org/2000/svg" width="52.722" height="48.327" viewBox="0 0 52.722 48.327"><g transform="translate(0 -0.008)"><circle cx="22.5" cy="22.5" r="22.5" transform="translate(1.62 1.749)" fill="#fff"/><path d="M24.163,48.334A24.163,24.163,0,1,1,37.2,3.828,1.649,1.649,0,0,1,35.417,6.6a20.865,20.865,0,1,0,9.615,17.569c0-.688-.033-1.369-.1-2.038a1.648,1.648,0,0,1,3.28-.319q.112,1.163.112,2.357A24.191,24.191,0,0,1,24.163,48.334Zm0,0" fill="#ba5b19"/><path d="M160.872,48.805a1.635,1.635,0,0,1-1.164-.483l-9.885-9.885a1.648,1.648,0,0,1,2.33-2.331l8.721,8.721,23-23a1.648,1.648,0,0,1,2.331,2.33L162.038,48.324A1.651,1.651,0,0,1,160.872,48.805Zm0,0" transform="translate(-133.963 -19.143)" fill="#ba5b19"/></g></svg>