<?xml version="1.0" encoding="utf-8"?>
<!-- Generator: Adobe Illustrator 24.3.0, SVG Export Plug-In . SVG Version: 6.00 Build 0)  -->
<svg version="1.1" id="Layer_1" xmlns="http://www.w3.org/2000/svg" xmlns:xlink="http://www.w3.org/1999/xlink" x="0px" y="0px"
	 viewBox="0 0 1456.8 898.2" style="enable-background:new 0 0 1456.8 898.2;" xml:space="preserve">
<style type="text/css">
	.st0{fill:#F7F7F7;}
	.st1{fill-rule:evenodd;clip-rule:evenodd;fill:#133233;}
	.st2{fill-rule:evenodd;clip-rule:evenodd;fill:#264C51;}
	.st3{fill-rule:evenodd;clip-rule:evenodd;fill:#3F3F3F;}
	.st4{fill-rule:evenodd;clip-rule:evenodd;fill:#FCD2B1;}
	.st5{fill-rule:evenodd;clip-rule:evenodd;fill:#FFC78E;}
	.st6{fill-rule:evenodd;clip-rule:evenodd;fill:#FFBE55;}
	.st7{fill-rule:evenodd;clip-rule:evenodd;}
	.st8{fill-rule:evenodd;clip-rule:evenodd;fill:#EFC5A8;}
	.st9{fill-rule:evenodd;clip-rule:evenodd;fill:#FFCA7D;}
	.st10{fill-rule:evenodd;clip-rule:evenodd;fill:#707070;}
	.st11{fill-rule:evenodd;clip-rule:evenodd;fill:#2B2B2B;}
	.st12{fill-rule:evenodd;clip-rule:evenodd;fill:#FD8369;}
	.st13{fill:#133233;}
	.st14{fill:#FCD2B1;}
</style>
<g id="Layer_2_1_">
	<g id="Layer_1-2">
		<path class="st0" d="M1005.6,322.5c49.7,86.1,79.1,156.3,97,245c18.2,88.4,25.1,195-24.7,235.4s-156.3,14.9-276.8,28.8
			c-120.2,13.8-254.4,67.1-353.9,26.7C348,817.8,283.9,683.6,303,568.7c19.3-115,122-210.8,221.2-296.6
			c99.2-86.1,195-162.1,277.9-149.5C885.5,135.2,955.7,236.7,1005.6,322.5L1005.6,322.5z"/>
		<g id="Vector">
			<path class="st1" d="M690.6,372.7l-74.8,480.1l34.5,3.9l109.9-316C760.2,540.7,804.2,321.1,690.6,372.7z"/>
			<path class="st2" d="M825.6,374.3l-1.9,478.2l-37.1,0.5l-58.2-476.4L825.6,374.3z"/>
			<path class="st3" d="M643,49.3h21.5v15.3H643V49.3z"/>
			<path class="st4" d="M684.6,257.9c-28.2-1.5-40-57-51.9-152.1c19-11.6,23.3-3.1,25.1,7.4s17.5,67.1,21.9,79.6
				c15.4,3.4,25.5,28.8,25.5,28.8S696.1,258.5,684.6,257.9z"/>
			<path class="st5" d="M738.2,134.7c27.9,12.4,17.5,62.8,4.7,84.7c-13.1,7.7-58.2-15.1-63.1-26.3
				C683.6,179,716.8,125.1,738.2,134.7z"/>
			<path class="st6" d="M759.3,124.1c28.5,0,59.6,12.2,73.2,38.3c13.9,26.8,0.8,200.3-5,218.4c-13.7,13.9-129.1,9.9-140.7-2.3
				C681.5,355.8,669.3,123.9,759.3,124.1z"/>
			<path class="st7" d="M614.1,64h78.8v43.1h-78.8V64z"/>
			<path class="st3" d="M645.1,68.3c11.6,0.6,20.5,10.4,20,22c-0.5,10.8-9.2,19.4-20,20 M626.6,110.2h19.7 M626.6,68.3h19.8"/>
			<path class="st8" d="M744.1,114.6l31.1-7.5l0.9,33c0,0-19,5-32,0C747.3,131,744.1,114.6,744.1,114.6z"/>
			<path class="st4" d="M708,77.7c-2-30.4,13.6-56.1,34.9-57.5c21.3-1.4,40.1,22,42.1,52.4s-13.6,56.1-34.9,57.5S710,108.1,708,77.7
				z"/>
			<path class="st4" d="M811.2,218.7c-4.3,6.9-42.7,55.1-57.5,55.1s-19.8-6.7-25.2-14.1c-5.4-7.4-45.6-138.8-47.9-146.9
				c-6.8-2-11.4-0.3-14.7-4.2s-4.1-32.6-0.4-36.7c3.7-4.1,12-2.9,11.6-7s-11-16.3-6-21.2c5.4,1.3,14.3,9.5,17.8,15
				s-0.3,7.1,0.4,10.1s11.2,20.7,7.5,31.7c2.9,7.9,55.4,104.9,60,115.8c5-8.4,23-26.2,23-26.2S815.5,211.9,811.2,218.7z"/>
			<path class="st9" d="M836.8,146.2c24,19,1.3,65.1-16.5,83.2c-14.6,4.2-52.6-29.1-54.6-41.1C772.9,175.5,818.4,131.6,836.8,146.2z
				"/>
			<path class="st3" d="M628.5,68.3h17.2v41.9h-17.2V68.3z"/>
			<path class="st10" d="M607.6,89.3c0-11.6,9.4-21,21-21s21,9.4,21,21s-9.4,21-21,21l0,0C617,110.3,607.6,100.9,607.6,89.3z"/>
			<path class="st4" d="M650.3,856.5l-3.5,11.6l-34.2-1.4l3-13.8L650.3,856.5z"/>
			<path class="st11" d="M648.1,897.1l-95.9,0.3l-0.2-14.5l61.5-17.2l33.8,2.3L648.1,897.1z"/>
			<path class="st4" d="M823.6,852.6l-0.1,15.6l-34.1-1.5v-14L823.6,852.6z"/>
			<path class="st11" d="M824.8,897.1l-59.4,0.3l-0.2-14.5l25-17.2L824,868L824.8,897.1z"/>
			<path class="st12" d="M626.8,59.1H641v5.4h-14.2V59.1z"/>
		</g>
	</g>
</g>
<path class="st13" d="M755.4,96.3l1.8,0.4c13.9,2.9,27.7-5.8,31-19.7l8.4-37.2l-27-5.8L755.4,96.3z"/>
<path class="st14" d="M768.2,68.6c-1.8,9.1,0.7,17.2,5.8,18.6c5.5,1.1,13.9-9.5,15.7-18.2c1.8-9.1-3.3-13.1-8.4-14.2
	C776.2,53.3,770,59.5,768.2,68.6z"/>
<path class="st13" d="M708.3,36.1c-0.4-6.2,0.7-12.4,2.9-17.9l0,0C717,4,732.7-1.9,747,2.9c1.5,0.4,2.9,1.1,4.7,1.5l24.1,5.5
	c14.6,3.3,23.7,17.5,20.4,32.1l-1.1,5.5l-14.2,8.4l-5.8,10.2l-1.1-0.4c-4.7-1.1-7.7-5.5-6.9-9.9c1.1-7.7-2.6-15-9.9-16.4L736,34.7
	c-13.1-2.9-21.2,2.6-23.4,12.4l-1.1,8.4L708.3,36.1z"/>
<path class="st13" d="M780.2,19c1.5,13.1-45.6,29.9-58.4,31.4c-12.4,1.5-24.1-8-25.5-21.2C694.8,16.1,703.6,4,716,2.6
	C728.4,1.1,778.4,5.8,780.2,19z"/>
</svg>
